<svg xmlns="http://www.w3.org/2000/svg" viewBox="0 0 616 199" role="img" aria-label="AZDEX Chemicals">
  <title>AZDEX Chemicals</title>
  <g class="logo-navy" fill="#182F50">
      <path d="M0 0 C1.13 -0.01 2.26 -0.02 3.42 -0.03 C4.66 -0.03 5.89 -0.04 7.17 -0.04 C8.44 -0.05 9.71 -0.05 11.01 -0.06 C13.72 -0.07 16.42 -0.08 19.13 -0.08 C21.87 -0.08 24.62 -0.1 27.36 -0.12 C51.55 -0.32 76.22 -0.44 94.94 17.26 C104.73 27.61 108.56 40.07 109.1 54.22 C108.56 69.01 103.53 83.14 92.74 93.43 C86.65 98.65 80.14 101.61 72.54 103.91 C71.89 104.11 71.25 104.31 70.58 104.51 C54.28 109.1 37.54 108.4 20.79 108.29 C18.25 108.28 15.72 108.27 13.19 108.26 C7.03 108.24 0.88 108.2 -5.28 108.16 C-6.43 105.84 -6.4 104.52 -6.4 101.94 C-6.41 101.06 -6.41 100.17 -6.41 99.26 C-6.41 98.29 -6.41 97.31 -6.41 96.31 C-6.41 95.29 -6.41 94.27 -6.41 93.21 C-6.41 89.82 -6.41 86.43 -6.41 83.03 C-6.41 80.68 -6.41 78.33 -6.41 75.99 C-6.41 71.06 -6.41 66.13 -6.41 61.2 C-6.4 54.87 -6.4 48.54 -6.41 42.21 C-6.41 37.36 -6.41 32.51 -6.41 27.66 C-6.41 25.32 -6.41 22.99 -6.41 20.65 C-6.41 17.39 -6.41 14.14 -6.41 10.88 C-6.41 9.91 -6.41 8.93 -6.41 7.93 C-6.41 7.04 -6.41 6.16 -6.4 5.25 C-6.4 4.48 -6.4 3.71 -6.4 2.92 C-6.13 -0.92 -3.2 0.02 0 0 Z M24.72 22.16 C24.61 24.14 24.58 26.13 24.56 28.12 C24.55 29.39 24.54 30.67 24.53 31.98 C24.53 33.38 24.52 34.79 24.52 36.19 C24.52 37.62 24.51 39.05 24.5 40.47 C24.49 43.47 24.49 46.47 24.48 49.47 C24.48 53.32 24.45 57.17 24.43 61.01 C24.41 63.97 24.4 66.92 24.4 69.87 C24.4 71.29 24.39 72.71 24.38 74.13 C24.36 76.11 24.36 78.09 24.37 80.07 C24.36 81.2 24.36 82.33 24.36 83.5 C24.42 83.94 24.42 83.94 24.72 86.16 C31.72 90.83 44.87 88.05 52.95 86.83 C60.52 85.3 66.87 82.26 71.72 76.16 C77.92 65.76 78.6 51.29 75.66 39.66 C72.65 31.35 66.97 26.75 59.15 23.07 C54.63 21.38 50.4 21.03 45.58 21.03 C45.01 21.03 45.01 21.03 42.09 21.02 C41.49 21.03 41.49 21.03 38.47 21.04 C37.27 21.03 36.06 21.03 34.81 21.02 C33.66 21.03 32.52 21.03 31.33 21.03 C30.81 21.03 30.81 21.03 28.15 21.03 C25.72 21.16 25.72 21.16 24.72 22.16 Z " transform="translate(266.28,7.84)"/>
      <path d="M0 0 C0.79 -0 1.58 -0.01 2.39 -0.01 C4.05 -0.01 5.72 -0.01 7.38 0.01 C9.93 0.03 12.47 0.01 15.02 -0.02 C16.64 -0.01 18.26 -0.01 19.88 0 C20.26 -0 20.26 -0 22.19 -0.02 C27.44 0.07 27.44 0.07 29.82 2.29 C30.92 4.51 32 6.7 32.95 8.99 C33.14 9.42 33.14 9.42 34.06 11.62 C34.43 12.52 34.8 13.42 35.19 14.34 C38.03 21.16 41.01 27.89 44.16 34.58 C47.74 42.2 51.15 49.89 54.56 57.59 C54.9 58.36 55.24 59.13 55.59 59.92 C57.7 64.68 59.8 69.43 61.9 74.19 C62.92 76.49 63.94 78.79 64.96 81.08 C66.52 84.61 68.08 88.14 69.63 91.68 C70.21 92.99 70.79 94.3 71.37 95.62 C72.17 97.42 72.96 99.23 73.75 101.04 C74.2 102.06 74.65 103.07 75.11 104.12 C75.38 104.92 75.66 105.71 75.94 106.53 C75.61 107.19 75.28 107.85 74.94 108.53 C70.72 108.65 66.5 108.75 62.28 108.81 C60.85 108.83 59.42 108.87 57.98 108.91 C55.92 108.97 53.86 109 51.79 109.02 C51.17 109.03 51.17 109.03 48.03 109.1 C44.94 108.53 44.94 108.53 43.13 106.28 C42.93 105.82 42.93 105.82 41.94 103.53 C41.6 102.8 41.26 102.08 40.91 101.33 C40.76 100.97 40.76 100.97 40 99.14 C39.83 98.74 39.83 98.74 38.98 96.74 C38.28 95.09 37.59 93.43 36.9 91.77 C36.73 91.38 36.73 91.38 35.88 89.39 C35.72 89.03 35.72 89.03 34.96 87.22 C33.94 85.53 33.94 85.53 30.94 84.53 C29.48 84.44 28.02 84.41 26.56 84.42 C26.12 84.42 26.12 84.42 23.89 84.42 C23.42 84.42 23.42 84.42 21.02 84.43 C20.05 84.44 19.07 84.44 18.07 84.44 C14.97 84.44 11.86 84.46 8.75 84.47 C6.64 84.47 4.54 84.48 2.43 84.48 C-2.73 84.49 -7.9 84.51 -13.06 84.53 C-13.52 85.59 -13.98 86.66 -14.45 87.75 C-17.5 94.76 -20.53 101.75 -24.06 108.53 C-28.01 108.61 -31.96 108.66 -35.92 108.7 C-37.92 108.72 -39.93 108.76 -41.93 108.79 C-43.19 108.8 -44.45 108.81 -45.74 108.82 C-46.9 108.84 -48.07 108.86 -49.27 108.87 C-50.19 108.76 -51.11 108.65 -52.06 108.53 C-52.72 107.54 -53.38 106.55 -54.06 105.53 C-53.31 103.02 -52.48 100.8 -51.43 98.42 C-51.13 97.71 -50.83 96.99 -50.52 96.26 C-49.53 93.91 -48.51 91.56 -47.5 89.22 C-46.8 87.58 -46.1 85.94 -45.41 84.29 C-43.64 80.14 -41.86 75.99 -40.06 71.85 C-39.14 69.72 -38.23 67.59 -37.31 65.46 C-34.69 59.38 -32.06 53.32 -29.41 47.25 C-26.92 41.53 -24.46 35.78 -22.02 30.03 C-21.34 28.41 -20.65 26.79 -19.96 25.18 C-18.96 22.81 -17.95 20.44 -16.95 18.07 C-16.03 15.89 -15.11 13.71 -14.18 11.52 C-14.04 11.2 -14.04 11.2 -13.36 9.55 C-10.1 1.94 -8.44 -0.09 0 0 Z M7.94 24.53 C5.62 30.59 3.31 36.66 1.01 42.73 C0.03 45.28 -0.95 47.83 -1.93 50.38 C-2.47 51.81 -3.02 53.23 -3.56 54.66 C-3.82 55.31 -4.07 55.97 -4.33 56.64 C-5.4 59.44 -6.06 61.51 -6.06 64.53 C4.17 64.53 14.4 64.53 24.94 64.53 C25.27 63.87 25.6 63.21 25.94 62.53 C25.13 60.23 24.27 58.04 23.3 55.8 C23.16 55.47 23.16 55.47 22.44 53.77 C21.53 51.63 20.61 49.49 19.69 47.34 C19.08 45.92 18.48 44.49 17.87 43.07 C16.24 39.22 14.59 35.37 12.94 31.53 C12.37 30.21 11.81 28.89 11.24 27.57 C10.81 26.57 10.38 25.56 9.94 24.53 C9.28 24.53 8.62 24.53 7.94 24.53 Z " transform="translate(63.06,7.47)"/>
      <path d="M0 0 C4.71 -0.2 9.42 -0.34 14.14 -0.44 C15.74 -0.48 17.34 -0.53 18.95 -0.6 C32.15 -1.16 32.15 -1.16 36.44 1.54 C38.26 3.59 39.62 5.63 41 8 C42.02 9.34 43.05 10.68 44.1 12 C45.09 13.33 46.08 14.66 47.06 16 C47.55 16.66 48.04 17.32 48.55 18 C50.59 20.74 52.62 23.48 54.64 26.25 C55.17 26.97 55.7 27.69 56.25 28.44 C56.73 29.1 57.21 29.75 57.7 30.43 C59 32 59 32 61 33 C61.13 32.64 61.13 32.64 61.78 30.83 C63.08 27.8 64.66 25.36 66.55 22.66 C67.25 21.66 67.95 20.66 68.67 19.63 C69.03 19.11 69.03 19.11 70.88 16.5 C71.6 15.47 72.32 14.43 73.06 13.37 C75.02 10.57 76.99 7.77 79 5 C79.58 4.07 80.15 3.15 80.75 2.2 C83.39 -0.38 85.01 -0.57 88.64 -0.57 C89.36 -0.54 90.08 -0.51 90.83 -0.49 C91.2 -0.48 91.2 -0.48 93.1 -0.47 C95.48 -0.44 97.87 -0.38 100.25 -0.31 C101.87 -0.29 103.49 -0.26 105.11 -0.24 C109.07 -0.19 113.04 -0.1 117 0 C116.4 3.21 115.39 5.08 113.3 7.57 C112.76 8.24 112.21 8.9 111.65 9.58 C111.06 10.28 110.48 10.97 109.88 11.69 C108.67 13.14 107.47 14.59 106.27 16.04 C105.7 16.73 105.13 17.43 104.53 18.14 C102.81 20.23 101.14 22.35 99.5 24.5 C95.11 30.2 90.53 35.75 85.99 41.33 C85.48 41.96 84.97 42.6 84.44 43.25 C83.18 44.78 81.87 46.26 80.54 47.73 C79 50 79 50 79.25 51.93 C80.05 54.15 80.98 55.52 82.48 57.33 C83 57.95 83.52 58.58 84.05 59.23 C84.61 59.89 85.17 60.56 85.75 61.25 C86.94 62.69 88.14 64.14 89.33 65.58 C89.63 65.95 89.63 65.95 91.18 67.81 C93.98 71.18 96.74 74.59 99.5 78 C102.86 82.15 106.23 86.28 109.64 90.39 C110.23 91.11 110.83 91.83 111.44 92.57 C112.57 93.94 113.72 95.32 114.86 96.69 C117.58 99.99 119.71 102.85 121 107 C114.24 108.23 107.55 108.53 100.69 108.75 C99.41 108.84 98.13 108.93 96.81 109.02 C87.54 109.24 87.54 109.24 83.33 105.84 C80.99 103.01 78.99 100.1 77 97 C75.74 95.32 74.48 93.64 73.2 91.98 C72.03 90.39 70.85 88.79 69.69 87.19 C69.39 86.78 69.39 86.78 67.89 84.74 C64.82 80.56 61.83 76.35 59 72 C54.97 75.83 51.67 79.91 48.38 84.38 C48.11 84.72 48.11 84.72 46.75 86.47 C44.04 89.99 41.75 93.32 39.93 97.38 C37.69 101.98 35.72 105.66 31 108 C20.15 109.87 8.91 108.91 -2 108 C-1.26 103.59 -0.07 101.47 2.88 98.06 C3.69 97.1 4.5 96.14 5.34 95.16 C5.77 94.65 6.21 94.14 6.66 93.61 C8.99 90.82 11.21 87.94 13.44 85.06 C16.9 80.62 20.43 76.25 24.06 71.94 C29.24 65.78 34.14 59.41 39 53 C37.68 50.16 36.21 47.85 34.2 45.45 C33.64 44.78 33.08 44.11 32.51 43.42 C31.91 42.7 31.31 41.99 30.69 41.25 C29.41 39.72 28.14 38.19 26.87 36.65 C26.22 35.88 25.57 35.1 24.91 34.3 C22.02 30.82 19.16 27.32 16.31 23.81 C15.79 23.16 15.26 22.52 14.71 21.85 C9.4 15.29 4.19 8.66 -1 2 C-0.67 1.34 -0.34 0.68 0 0 Z " transform="translate(487,8)"/>
      <path d="M0 0 C0.79 0 1.58 0 2.39 0.01 C2.81 0.01 2.81 0.01 4.9 0 C7.65 -0 10.4 -0 13.15 0 C15.05 0 16.95 0 18.85 -0 C22.85 -0 26.84 0 30.83 0.01 C35.96 0.01 41.09 0.01 46.21 0 C50.14 -0 54.07 -0 58 0 C59.89 0 61.78 0 63.68 -0 C66.31 -0 68.95 0 71.59 0.01 C71.99 0.01 71.99 0.01 73.98 0 C79.38 0.02 79.38 0.02 80.49 1.14 C80.59 2.54 80.62 3.95 80.63 5.35 C80.63 6.2 80.63 7.05 80.63 7.93 C80.63 8.82 80.62 9.72 80.62 10.64 C80.62 11.53 80.63 12.42 80.63 13.34 C80.63 14.19 80.63 15.04 80.63 15.92 C80.62 16.7 80.62 17.49 80.62 18.29 C80.49 20.14 80.49 20.14 79.49 21.14 C77.77 21.26 76.05 21.31 74.33 21.34 C73.78 21.35 73.78 21.35 70.99 21.4 C70.39 21.41 70.39 21.41 67.36 21.45 C66.75 21.46 66.75 21.46 63.67 21.51 C59.76 21.58 55.84 21.64 51.93 21.7 C49.28 21.74 46.64 21.78 43.99 21.83 C37.49 21.94 30.99 22.04 24.49 22.14 C24.49 28.74 24.49 35.34 24.49 42.14 C25.25 42.15 25.25 42.15 29.07 42.21 C34.64 42.31 40.22 42.41 45.8 42.51 C48.22 42.55 50.64 42.59 53.05 42.63 C56.52 42.69 59.99 42.75 63.46 42.82 C64 42.83 64 42.83 66.76 42.87 C67.26 42.88 67.26 42.88 69.79 42.93 C70.68 42.95 71.56 42.96 72.47 42.98 C74.49 43.14 74.49 43.14 75.49 44.14 C75.59 45.47 75.62 46.8 75.63 48.14 C75.63 48.94 75.63 49.74 75.63 50.57 C75.63 51.42 75.62 52.26 75.62 53.14 C75.62 53.98 75.63 54.83 75.63 55.7 C75.63 56.5 75.63 57.31 75.63 58.14 C75.62 58.88 75.62 59.62 75.62 60.39 C75.49 62.14 75.49 62.14 74.49 63.14 C72.9 63.23 71.3 63.25 69.7 63.25 C68.68 63.25 67.66 63.25 66.6 63.25 C65.49 63.24 64.38 63.24 63.24 63.23 C62.11 63.23 60.98 63.23 59.81 63.23 C56.19 63.22 52.56 63.21 48.93 63.2 C46.48 63.19 44.03 63.19 41.57 63.18 C35.55 63.17 29.52 63.15 23.49 63.14 C23.66 66.93 23.66 66.93 24.49 86.14 C25.34 86.15 25.34 86.15 29.62 86.21 C35.19 86.3 40.77 86.38 46.35 86.47 C49.73 86.53 53.11 86.58 56.49 86.63 C60.38 86.69 64.26 86.75 68.14 86.82 C69.36 86.84 70.58 86.85 71.84 86.87 C72.96 86.89 74.08 86.91 75.24 86.93 C76.23 86.95 77.22 86.96 78.25 86.98 C80.49 87.14 80.49 87.14 81.49 88.14 C81.59 89.54 81.62 90.95 81.63 92.35 C81.63 93.2 81.63 94.05 81.63 94.93 C81.63 95.82 81.62 96.72 81.62 97.64 C81.62 98.53 81.63 99.42 81.63 100.34 C81.63 101.19 81.63 102.04 81.63 102.92 C81.62 103.7 81.62 104.49 81.62 105.29 C81.49 107.14 81.49 107.14 80.49 108.14 C77.78 108.23 75.1 108.26 72.39 108.25 C71.54 108.25 70.7 108.25 69.82 108.25 C67 108.25 64.18 108.24 61.36 108.23 C59.41 108.23 57.47 108.23 55.52 108.23 C50.38 108.23 45.23 108.22 40.09 108.2 C34.85 108.19 29.61 108.19 24.37 108.18 C14.08 108.17 3.78 108.16 -6.51 108.14 C-7.17 79.07 -7.79 50.02 -7.13 20.95 C-7.11 19.93 -7.09 18.92 -7.07 17.88 C-7.01 15.05 -6.93 12.23 -6.86 9.41 C-6.84 8.57 -6.82 7.74 -6.8 6.88 C-6.6 0.39 -6.52 0.03 0 0 Z " transform="translate(394.51,7.86)"/>
      <path d="M0 0 C0.88 0 1.77 0 2.68 0.01 C3.6 0 4.53 0 5.48 0 C8.55 -0 11.63 -0 14.7 0 C16.83 0 18.95 0 21.08 -0 C25.54 -0 30 0 34.47 0.01 C40.2 0.01 45.93 0.01 51.67 0 C56.06 -0 60.45 -0 64.84 0 C66.96 0 69.07 0 71.19 -0 C74.14 -0 77.09 0 80.04 0.01 C80.92 0 81.81 0 82.72 0 C88.74 0.02 88.74 0.02 89.86 1.14 C91.28 8.44 92.37 17.84 88.49 24.47 C85.01 28.73 80.87 32.22 76.61 35.68 C74.57 37.38 72.86 39.21 71.17 41.26 C68.17 44.82 65.03 48.23 61.86 51.64 C58.55 55.2 55.28 58.76 52.11 62.45 C49.18 65.84 46.03 68.98 42.84 72.12 C38.18 76.85 33.99 81.95 29.86 87.14 C30.62 87.13 31.38 87.13 32.17 87.13 C39.33 87.11 46.5 87.09 53.67 87.08 C57.35 87.08 61.04 87.07 64.72 87.06 C68.27 87.05 71.83 87.04 75.38 87.04 C76.74 87.04 78.1 87.04 79.46 87.03 C81.35 87.02 83.25 87.02 85.14 87.02 C86.23 87.02 87.31 87.02 88.42 87.02 C90.86 87.14 90.86 87.14 91.86 88.14 C91.96 89.54 91.99 90.95 91.99 92.35 C91.99 93.2 91.99 94.05 91.99 94.93 C91.99 95.82 91.99 96.72 91.98 97.64 C91.99 98.53 91.99 99.42 91.99 100.34 C91.99 101.19 91.99 102.04 91.99 102.92 C91.99 103.7 91.99 104.49 91.99 105.29 C91.86 107.14 91.86 107.14 90.86 108.14 C87.81 108.23 84.79 108.26 81.75 108.25 C80.79 108.25 79.84 108.25 78.85 108.25 C75.68 108.25 72.5 108.24 69.32 108.23 C67.13 108.23 64.93 108.23 62.74 108.23 C56.94 108.23 51.15 108.22 45.36 108.2 C39.46 108.19 33.55 108.19 27.64 108.18 C16.05 108.17 4.45 108.16 -7.14 108.14 C-7.35 104.62 -7.47 101.1 -7.58 97.57 C-7.64 96.58 -7.7 95.59 -7.76 94.57 C-7.93 87.27 -7.93 87.27 -5.62 83.93 C-3.87 82.19 -2.08 80.66 -0.14 79.14 C1.02 77.84 2.17 76.53 3.3 75.2 C6.26 71.75 9.4 68.54 12.67 65.39 C15.22 62.76 17.6 60.01 19.99 57.25 C22.93 53.91 25.99 50.68 29.05 47.45 C30.36 46.05 31.67 44.66 32.98 43.26 C34.87 41.24 36.77 39.23 38.67 37.22 C40.32 35.46 41.96 33.71 43.61 31.95 C44.1 31.43 44.59 30.92 45.09 30.38 C47.8 27.48 49.87 24.56 51.86 21.14 C51.5 21.14 51.5 21.14 49.66 21.14 C42.85 21.16 36.04 21.18 29.22 21.19 C25.72 21.19 22.22 21.2 18.71 21.21 C14.69 21.22 10.67 21.23 6.64 21.23 C5.38 21.24 4.12 21.24 2.81 21.25 C1.65 21.25 0.49 21.25 -0.7 21.25 C-1.22 21.25 -1.22 21.25 -3.82 21.26 C-6.14 21.14 -6.14 21.14 -7.14 20.14 C-7.24 18.73 -7.27 17.32 -7.27 15.92 C-7.28 15.07 -7.28 14.22 -7.28 13.34 C-7.27 12.45 -7.27 11.56 -7.27 10.64 C-7.27 9.74 -7.27 8.85 -7.28 7.93 C-7.28 7.08 -7.28 6.23 -7.27 5.35 C-7.27 4.57 -7.27 3.79 -7.27 2.98 C-6.97 -1.26 -3.45 0.01 0 0 Z " transform="translate(154.14,7.86)"/>
  </g>
  <g class="logo-yellow" fill="#EEBC3A">
      <path d="M0 0 C0.39 0.05 0.39 0.05 2.39 0.27 C4.31 0.62 4.31 0.62 5.31 1.62 C5.41 4.28 5.45 6.91 5.45 9.56 C5.45 10.36 5.45 11.15 5.45 11.97 C5.45 13.66 5.45 15.34 5.44 17.03 C5.44 19.61 5.44 22.2 5.45 24.79 C5.45 26.42 5.45 28.05 5.45 29.69 C5.45 30.47 5.45 31.25 5.45 32.05 C5.43 37.51 5.43 37.51 4.31 38.62 C2.48 38.72 0.65 38.75 -1.19 38.75 C-2.19 38.75 -3.19 38.76 -4.22 38.76 C-6.69 38.62 -6.69 38.62 -7.69 37.62 C-7.76 34.76 -7.78 31.92 -7.75 29.06 C-7.75 28.26 -7.74 27.45 -7.74 26.62 C-7.72 24.62 -7.71 22.62 -7.69 20.62 C-11.03 23.78 -13.57 26.74 -15.81 30.75 C-19.42 37.16 -19.42 37.16 -21.69 38.62 C-25.04 38.81 -25.04 38.81 -28.69 37.62 C-30.98 35.25 -32.52 32.56 -34.12 29.69 C-34.57 28.95 -35.02 28.2 -35.47 27.44 C-38.69 22 -38.69 22 -38.69 19.62 C-39.35 19.62 -40.01 19.62 -40.69 19.62 C-40.66 20.83 -40.64 22.03 -40.62 23.27 C-40.6 24.85 -40.58 26.42 -40.56 28 C-40.55 28.4 -40.55 28.4 -40.51 30.41 C-40.49 32.48 -40.58 34.55 -40.69 36.62 C-42.69 38.62 -42.69 38.62 -44.82 38.86 C-45.62 38.84 -46.42 38.83 -47.25 38.81 C-48.06 38.81 -48.86 38.8 -49.69 38.79 C-51.69 38.62 -51.69 38.62 -52.69 37.62 C-52.79 34.97 -52.83 32.34 -52.82 29.69 C-52.82 28.89 -52.82 28.1 -52.82 27.28 C-52.82 25.59 -52.82 23.91 -52.82 22.22 C-52.81 19.64 -52.82 17.05 -52.82 14.46 C-52.82 12.83 -52.82 11.2 -52.82 9.56 C-52.82 8.78 -52.82 8 -52.83 7.2 C-52.8 1.74 -52.8 1.74 -51.69 0.62 C-49.11 0.35 -49.11 0.35 -45.88 0.25 C-44.82 0.2 -43.76 0.15 -42.67 0.1 C-39.69 0.62 -39.69 0.62 -37.59 2.7 C-36.96 3.67 -36.33 4.63 -35.69 5.62 C-35.32 6.18 -34.95 6.73 -34.57 7.3 C-33.38 9.1 -32.22 10.92 -31.06 12.75 C-30.28 13.98 -29.49 15.21 -28.71 16.45 C-28.04 17.49 -27.38 18.54 -26.69 19.62 C-26.03 20.61 -25.37 21.61 -24.69 22.62 C-24.03 22.62 -23.37 22.62 -22.69 22.62 C-21.5 21.04 -21.5 21.04 -20.19 18.83 C-19.72 18.03 -19.24 17.24 -18.75 16.42 C-18.25 15.58 -17.76 14.74 -17.25 13.88 C-16.27 12.23 -15.3 10.59 -14.32 8.95 C-13.88 8.22 -13.45 7.49 -13.01 6.73 C-9.35 0.9 -9.35 0.9 -6.79 -0.15 C-4.44 -0.4 -2.35 -0.29 0 0 Z " transform="translate(279.69,151.38)"/>
      <path d="M0 0 C1.99 1.99 1.16 5.95 1.17 8.68 C1.17 9.07 1.17 9.07 1.18 11.02 C1.18 12.65 1.19 14.29 1.19 15.92 C1.19 18.42 1.21 20.93 1.22 23.43 C1.23 25.02 1.23 26.6 1.23 28.18 C1.24 28.94 1.24 29.69 1.25 30.46 C1.23 35.77 1.23 35.77 -1 38 C-3.38 38.2 -3.38 38.2 -6.12 38.12 C-7.04 38.11 -7.95 38.09 -8.88 38.07 C-9.58 38.05 -10.28 38.02 -11 38 C-13 34 -13 34 -13 24 C-19.6 24 -26.2 24 -33 24 C-33.14 26.12 -33.29 28.25 -33.44 30.44 C-33.88 36.88 -33.88 36.88 -35 38 C-36.64 38.12 -38.29 38.18 -39.94 38.19 C-40.83 38.2 -41.73 38.22 -42.65 38.23 C-45 38 -45 38 -47 36 C-47.19 33.36 -47.26 30.82 -47.23 28.18 C-47.23 27.41 -47.23 26.64 -47.23 25.85 C-47.23 24.21 -47.22 22.58 -47.21 20.95 C-47.19 18.44 -47.19 15.94 -47.19 13.43 C-47.18 11.85 -47.17 10.27 -47.17 8.68 C-47.17 7.93 -47.17 7.18 -47.16 6.4 C-47.12 1.12 -47.12 1.12 -46 0 C-44.17 -0.1 -42.33 -0.13 -40.5 -0.12 C-39.5 -0.13 -38.5 -0.13 -37.47 -0.13 C-35 0 -35 0 -34 1 C-33.54 4.99 -33.3 8.99 -33 13 C-26.4 13 -19.8 13 -13 13 C-12.67 9.04 -12.34 5.08 -12 1 C-6.88 -1.05 -5.18 -1.1 0 0 Z " transform="translate(129,152)"/>
      <path d="M0 0 C1.31 4.39 1.31 4.39 0.06 6.88 C-2.62 8.34 -4.46 7.83 -7.39 7.33 C-12.89 6.64 -18.47 6.93 -24 7 C-24 7.99 -24 8.98 -24 10 C-23.33 10.11 -22.67 10.22 -21.98 10.33 C-0.98 13.94 -0.98 13.94 4 20 C4.69 23.96 4.95 26.25 3.04 29.78 C-0.43 34.29 -3.75 35.55 -9.12 36.62 C-18.7 37.55 -28.18 37.56 -37.12 33.62 C-37.74 33.09 -38.36 32.55 -39 32 C-39 28 -39 28 -37.81 26.25 C-35.35 24.55 -33.95 24.65 -31 25 C-30.25 25.33 -29.49 25.67 -28.72 26.01 C-25.6 27.15 -23.18 27.23 -19.88 27.19 C-18.84 27.18 -17.81 27.17 -16.74 27.17 C-14 27 -14 27 -11 26 C-11 25.34 -11 24.68 -11 24 C-13 23.37 -15 22.75 -17 22.12 C-18.19 21.76 -19.37 21.39 -20.6 21 C-23.22 20.23 -25.77 19.6 -28.44 19.06 C-32.99 17.7 -34.87 16.6 -38 13 C-38.86 10.12 -38.86 7.88 -38 5 C-28.7 -5.74 -12.15 -5.03 0 0 Z " transform="translate(603,154)"/>
      <path d="M0 0 C0.59 -0 0.59 -0 3.56 -0.01 C4.78 -0 5.99 0.01 7.25 0.02 C8.46 0.01 9.68 0 10.94 -0.01 C12.11 -0.01 13.29 -0 14.5 0 C15.57 0 16.63 0 17.73 0.01 C20.75 0.27 22.95 0.99 25.68 2.27 C25.73 4.27 25.72 6.27 25.68 8.27 C24 9.95 21.86 9.49 19.55 9.58 C19.04 9.6 19.04 9.6 16.42 9.71 C15.88 9.73 15.88 9.73 13.12 9.83 C12.57 9.85 12.57 9.85 9.81 9.96 C7.1 10.07 4.39 10.17 1.68 10.27 C1.68 11.59 1.68 12.91 1.68 14.27 C2.25 14.29 2.81 14.31 3.4 14.33 C5.95 14.42 8.5 14.53 11.06 14.64 C11.95 14.67 12.84 14.7 13.75 14.73 C14.6 14.77 15.46 14.81 16.33 14.85 C17.12 14.88 17.9 14.91 18.71 14.95 C20.68 15.27 20.68 15.27 22.68 17.27 C22.87 19.83 22.87 19.83 22.68 22.27 C21.1 23.85 19.41 23.49 17.21 23.58 C16.31 23.62 15.41 23.67 14.49 23.71 C13.54 23.75 12.6 23.79 11.62 23.83 C10.67 23.87 9.72 23.91 8.74 23.96 C6.39 24.07 4.04 24.17 1.68 24.27 C1.68 26.25 1.68 28.23 1.68 30.27 C2.03 30.28 2.03 30.28 3.76 30.33 C6.86 30.42 9.96 30.53 13.06 30.64 C13.6 30.66 13.6 30.66 16.33 30.73 C16.85 30.75 16.85 30.75 19.46 30.85 C19.93 30.87 19.93 30.87 22.35 30.95 C24.68 31.27 24.68 31.27 26.68 33.27 C26.31 35.89 26.31 35.89 25.68 38.27 C22.07 39.47 18.75 39.41 14.99 39.4 C14.24 39.4 13.49 39.4 12.72 39.4 C11.14 39.4 9.56 39.4 7.99 39.4 C5.56 39.39 3.14 39.4 0.71 39.4 C-0.82 39.4 -2.35 39.4 -3.89 39.4 C-4.25 39.4 -4.25 39.4 -6.1 39.4 C-11.2 39.38 -11.2 39.38 -12.32 38.27 C-12.4 35.6 -12.43 32.96 -12.41 30.29 C-12.41 29.5 -12.41 28.7 -12.41 27.88 C-12.4 25.32 -12.39 22.76 -12.38 20.2 C-12.37 18.47 -12.37 16.74 -12.37 15.01 C-12.35 10.76 -12.34 6.51 -12.32 2.27 C-8.07 0.66 -4.54 0.01 0 0 Z " transform="translate(172.32,150.73)"/>
      <path d="M0 0 C2.98 2.65 5.02 5.39 7.02 8.82 C7.57 9.75 8.12 10.68 8.68 11.63 C9.24 12.6 9.8 13.57 10.38 14.56 C10.65 15.03 10.65 15.03 12.05 17.41 C15.83 23.87 19.45 30.41 23 37 C20.51 39.49 19.57 39.32 16.12 39.38 C12.56 39.31 11.38 39.27 8.44 37.12 C7 35 7 35 6 33 C2.13 31.71 -1.53 31.85 -5.56 31.88 C-5.95 31.87 -5.95 31.87 -7.93 31.86 C-13.75 31.87 -13.75 31.87 -16 33 C-16.5 33.83 -16.99 34.65 -17.5 35.5 C-19 38 -19 38 -21 39 C-22.71 39.07 -24.42 39.08 -26.12 39.06 C-27.04 39.05 -27.95 39.04 -28.88 39.04 C-29.58 39.02 -30.28 39.01 -31 39 C-32.33 34.63 -32.33 34.63 -30.88 31.89 C-30.3 31.16 -29.72 30.44 -29.12 29.69 C-25.33 24.63 -22.29 19.35 -19.29 13.8 C-10.54 -2.2 -10.54 -2.2 0 0 Z M-7 14 C-8.32 16.64 -9.64 19.28 -11 22 C-3.57 24.43 -3.57 24.43 0 23 C-0.65 19.51 -1.92 16.88 -4 14 C-4.99 14 -5.98 14 -7 14 Z " transform="translate(458,151)"/>
      <path d="M0 0 C0.67 -0.01 1.35 -0.02 2.04 -0.02 C7.34 -0 12.55 0.56 17 3.62 C18 5.25 18 5.25 17.81 7.31 C17 9.25 17 9.25 15 11.25 C13.14 11.05 11.27 10.83 9.42 10.55 C6.71 10.21 4.05 10.1 1.31 10.06 C0.42 10.05 -0.47 10.03 -1.39 10.02 C-5.32 10.37 -8.14 11.62 -11.31 13.94 C-13.71 17.22 -13.56 19.27 -13 23.25 C-10.98 26.89 -9.57 28.02 -5.69 29.56 C-0.5 30.53 3.53 30.68 8.62 29.19 C12.01 28.25 13.69 28.25 17 29.25 C17.16 30.24 17.16 30.24 18 35.25 C13.36 39.69 6.81 40.33 0.62 40.5 C-8.89 40.2 -16.66 38.64 -24 32.25 C-27.99 27.5 -28.47 23.17 -28.41 17.11 C-27.64 11.69 -24.54 8.2 -20.29 4.94 C-13.95 1.03 -7.33 -0.08 0 0 Z " transform="translate(36,150.75)"/>
      <path d="M0 0 C1.23 2.11 1.23 2.11 2 4 C0.56 6.06 0.56 6.06 -2 8 C-4.24 8.05 -6.28 7.72 -8.49 7.37 C-14.32 6.51 -20.74 5.97 -26 9 C-28.2 10.65 -28.9 11.71 -29.81 14.31 C-30.06 17.86 -29.62 19.82 -28 23 C-23.18 26.82 -19.45 27.51 -13.36 27.28 C-10.41 26.93 -7.8 25.98 -5 25 C-2.25 25.19 -2.25 25.19 0 26 C2 29 2 29 1.94 31 C0.54 33.98 -1.01 34.66 -4 36 C-6.75 36.5 -9.23 36.84 -12 37 C-12.7 37.04 -13.41 37.08 -14.13 37.12 C-24.35 37.42 -33.11 35.84 -41 29 C-44.81 24.36 -45 19.41 -45 13.56 C-43.37 7.77 -39.88 3.68 -34.68 0.64 C-24.83 -3.85 -9.67 -6.18 0 0 Z " transform="translate(403,154)"/>
      <path d="M0 0 C0.99 -0.01 1.98 -0.03 3 -0.04 C5.56 0.19 5.56 0.19 7.56 2.19 C7.88 4.89 7.88 4.89 7.98 8.29 C8.02 9.5 8.05 10.71 8.09 11.96 C8.12 13.23 8.16 14.5 8.19 15.81 C8.23 17.09 8.26 18.37 8.3 19.69 C8.4 22.85 8.48 26.02 8.56 29.19 C15.49 29.52 22.42 29.85 29.56 30.19 C30.22 31.51 30.88 32.83 31.56 34.19 C30.53 36.16 30.53 36.16 28.56 38.19 C25.94 38.57 23.74 38.7 21.12 38.65 C20.4 38.65 19.67 38.65 18.93 38.65 C17.4 38.64 15.87 38.62 14.35 38.6 C12 38.56 9.66 38.56 7.32 38.56 C5.84 38.55 4.35 38.54 2.87 38.52 C2.17 38.52 1.47 38.52 0.74 38.52 C-4.21 38.42 -4.21 38.42 -6.44 36.19 C-6.62 33.55 -6.69 31.01 -6.67 28.37 C-6.67 27.6 -6.67 26.83 -6.67 26.03 C-6.66 24.4 -6.66 22.77 -6.64 21.14 C-6.63 18.63 -6.62 16.13 -6.62 13.62 C-6.62 12.04 -6.61 10.45 -6.61 8.87 C-6.6 8.12 -6.6 7.36 -6.6 6.59 C-6.54 0.29 -6.21 0.04 0 0 Z " transform="translate(511.44,151.81)"/>
      <path d="M0 0 C2 2 1.3 5.94 1.39 8.68 C1.41 9.45 1.44 10.22 1.46 11.02 C1.52 12.65 1.57 14.29 1.61 15.92 C1.69 18.42 1.78 20.93 1.87 23.43 C1.92 25.02 1.97 26.6 2.01 28.18 C2.04 28.94 2.07 29.69 2.1 30.46 C2.14 32.31 2.08 34.16 2 36 C0 38 0 38 -2.57 38.23 C-3.56 38.22 -4.54 38.2 -5.56 38.19 C-6.55 38.18 -7.55 38.17 -8.57 38.17 C-11 38 -11 38 -12 37 C-12.09 34.33 -12.12 31.69 -12.1 29.03 C-12.1 28.23 -12.09 27.43 -12.09 26.61 C-12.09 24.05 -12.08 21.5 -12.06 18.94 C-12.06 17.21 -12.05 15.48 -12.05 13.75 C-12.04 9.5 -12.02 5.25 -12 1 C-7.47 -0.65 -4.73 -1.21 0 0 Z " transform="translate(329,152)"/>
  </g>
</svg>
