<svg xmlns="http://www.w3.org/2000/svg" viewBox="0 0 1072 392" role="img" aria-label="AZDEX Chemicals">
  <title>AZDEX Chemicals</title>
  <g class="logo-navy" fill="#182F50">
      <path d="M0 0 C1.13 -0.01 2.26 -0.02 3.42 -0.03 C4.66 -0.03 5.89 -0.04 7.17 -0.04 C8.44 -0.05 9.71 -0.05 11.01 -0.06 C13.72 -0.07 16.42 -0.08 19.13 -0.08 C21.87 -0.08 24.62 -0.1 27.36 -0.12 C51.55 -0.32 76.22 -0.44 94.94 17.26 C104.73 27.61 108.56 40.07 109.1 54.22 C108.56 69.01 103.53 83.14 92.74 93.43 C86.65 98.65 80.14 101.61 72.54 103.91 C71.89 104.11 71.25 104.31 70.58 104.51 C54.28 109.1 37.54 108.4 20.79 108.29 C18.25 108.28 15.72 108.27 13.19 108.26 C7.03 108.24 0.88 108.2 -5.28 108.16 C-6.43 105.84 -6.4 104.52 -6.4 101.94 C-6.41 101.06 -6.41 100.17 -6.41 99.26 C-6.41 98.29 -6.41 97.31 -6.41 96.31 C-6.41 95.29 -6.41 94.27 -6.41 93.21 C-6.41 89.82 -6.41 86.43 -6.41 83.03 C-6.41 80.68 -6.41 78.33 -6.41 75.99 C-6.41 71.06 -6.41 66.13 -6.41 61.2 C-6.4 54.87 -6.4 48.54 -6.41 42.21 C-6.41 37.36 -6.41 32.51 -6.41 27.66 C-6.41 25.32 -6.41 22.99 -6.41 20.65 C-6.41 17.39 -6.41 14.14 -6.41 10.88 C-6.41 9.91 -6.41 8.93 -6.41 7.93 C-6.41 7.04 -6.41 6.16 -6.4 5.25 C-6.4 4.48 -6.4 3.71 -6.4 2.92 C-6.13 -0.92 -3.2 0.02 0 0 Z M24.72 22.16 C24.61 24.14 24.58 26.13 24.56 28.12 C24.55 29.39 24.54 30.67 24.53 31.98 C24.53 33.38 24.52 34.79 24.52 36.19 C24.52 37.62 24.51 39.05 24.5 40.47 C24.49 43.47 24.49 46.47 24.48 49.47 C24.48 53.32 24.45 57.17 24.43 61.01 C24.41 63.97 24.4 66.92 24.4 69.87 C24.4 71.29 24.39 72.71 24.38 74.13 C24.36 76.11 24.36 78.09 24.37 80.07 C24.36 81.2 24.36 82.33 24.36 83.5 C24.42 83.94 24.42 83.94 24.72 86.16 C31.72 90.83 44.87 88.05 52.95 86.83 C60.52 85.3 66.87 82.26 71.72 76.16 C77.92 65.76 78.6 51.29 75.66 39.66 C72.65 31.35 66.97 26.75 59.15 23.07 C54.63 21.38 50.4 21.03 45.58 21.03 C45.01 21.03 45.01 21.03 42.09 21.02 C41.49 21.03 41.49 21.03 38.47 21.04 C37.27 21.03 36.06 21.03 34.81 21.02 C33.66 21.03 32.52 21.03 31.33 21.03 C30.81 21.03 30.81 21.03 28.15 21.03 C25.72 21.16 25.72 21.16 24.72 22.16 Z " transform="translate(729.28,107.84)"/>
      <path d="M0 0 C0.79 -0 1.58 -0.01 2.39 -0.01 C4.05 -0.01 5.72 -0.01 7.38 0.01 C9.93 0.03 12.47 0.01 15.02 -0.02 C16.64 -0.01 18.26 -0.01 19.88 0 C20.26 -0 20.26 -0 22.19 -0.02 C27.44 0.07 27.44 0.07 29.82 2.29 C30.92 4.51 32 6.7 32.95 8.99 C33.14 9.42 33.14 9.42 34.06 11.62 C34.43 12.52 34.8 13.42 35.19 14.34 C38.03 21.16 41.01 27.89 44.16 34.58 C47.74 42.2 51.15 49.89 54.56 57.59 C54.9 58.36 55.24 59.13 55.59 59.92 C57.7 64.68 59.8 69.43 61.9 74.19 C62.92 76.49 63.94 78.79 64.96 81.08 C66.52 84.61 68.08 88.14 69.63 91.68 C70.21 92.99 70.79 94.3 71.37 95.62 C72.17 97.42 72.96 99.23 73.75 101.04 C74.2 102.06 74.65 103.07 75.11 104.12 C75.38 104.92 75.66 105.71 75.94 106.53 C75.61 107.19 75.28 107.85 74.94 108.53 C70.72 108.65 66.5 108.75 62.28 108.81 C60.85 108.83 59.42 108.87 57.98 108.91 C55.92 108.97 53.86 109 51.79 109.02 C51.17 109.03 51.17 109.03 48.03 109.1 C44.94 108.53 44.94 108.53 43.13 106.28 C42.93 105.82 42.93 105.82 41.94 103.53 C41.6 102.8 41.26 102.08 40.91 101.33 C40.76 100.97 40.76 100.97 40 99.14 C39.83 98.74 39.83 98.74 38.98 96.74 C38.28 95.09 37.59 93.43 36.9 91.77 C36.73 91.38 36.73 91.38 35.88 89.39 C35.72 89.03 35.72 89.03 34.96 87.22 C33.94 85.53 33.94 85.53 30.94 84.53 C29.48 84.44 28.02 84.41 26.56 84.42 C26.12 84.42 26.12 84.42 23.89 84.42 C23.42 84.42 23.42 84.42 21.02 84.43 C20.05 84.44 19.07 84.44 18.07 84.44 C14.97 84.44 11.86 84.46 8.75 84.47 C6.64 84.47 4.54 84.48 2.43 84.48 C-2.73 84.49 -7.9 84.51 -13.06 84.53 C-13.52 85.59 -13.98 86.66 -14.45 87.75 C-17.5 94.76 -20.53 101.75 -24.06 108.53 C-28.01 108.61 -31.96 108.66 -35.92 108.7 C-37.92 108.72 -39.93 108.76 -41.93 108.79 C-43.19 108.8 -44.45 108.81 -45.74 108.82 C-46.9 108.84 -48.07 108.86 -49.27 108.87 C-50.19 108.76 -51.11 108.65 -52.06 108.53 C-52.72 107.54 -53.38 106.55 -54.06 105.53 C-53.31 103.02 -52.48 100.8 -51.43 98.42 C-51.13 97.71 -50.83 96.99 -50.52 96.26 C-49.53 93.91 -48.51 91.56 -47.5 89.22 C-46.8 87.58 -46.1 85.94 -45.41 84.29 C-43.64 80.14 -41.86 75.99 -40.06 71.85 C-39.14 69.72 -38.23 67.59 -37.31 65.46 C-34.69 59.38 -32.06 53.32 -29.41 47.25 C-26.92 41.53 -24.46 35.78 -22.02 30.03 C-21.34 28.41 -20.65 26.79 -19.96 25.18 C-18.96 22.81 -17.95 20.44 -16.95 18.07 C-16.03 15.89 -15.11 13.71 -14.18 11.52 C-14.04 11.2 -14.04 11.2 -13.36 9.55 C-10.1 1.94 -8.44 -0.09 0 0 Z M7.94 24.53 C5.62 30.59 3.31 36.66 1.01 42.73 C0.03 45.28 -0.95 47.83 -1.93 50.38 C-2.47 51.81 -3.02 53.23 -3.56 54.66 C-3.82 55.31 -4.07 55.97 -4.33 56.64 C-5.4 59.44 -6.06 61.51 -6.06 64.53 C4.17 64.53 14.4 64.53 24.94 64.53 C25.27 63.87 25.6 63.21 25.94 62.53 C25.13 60.23 24.27 58.04 23.3 55.8 C23.16 55.47 23.16 55.47 22.44 53.77 C21.53 51.63 20.61 49.49 19.69 47.34 C19.08 45.92 18.48 44.49 17.87 43.07 C16.24 39.22 14.59 35.37 12.94 31.53 C12.37 30.21 11.81 28.89 11.24 27.57 C10.81 26.57 10.38 25.56 9.94 24.53 C9.28 24.53 8.62 24.53 7.94 24.53 Z " transform="translate(526.06,107.47)"/>
      <path d="M0 0 C4.71 -0.2 9.42 -0.34 14.14 -0.44 C15.74 -0.48 17.34 -0.53 18.95 -0.6 C32.15 -1.16 32.15 -1.16 36.44 1.54 C38.26 3.59 39.62 5.63 41 8 C42.02 9.34 43.05 10.68 44.1 12 C45.09 13.33 46.08 14.66 47.06 16 C47.55 16.66 48.04 17.32 48.55 18 C50.59 20.74 52.62 23.48 54.64 26.25 C55.17 26.97 55.7 27.69 56.25 28.44 C56.73 29.1 57.21 29.75 57.7 30.43 C59 32 59 32 61 33 C61.13 32.64 61.13 32.64 61.78 30.83 C63.08 27.8 64.66 25.36 66.55 22.66 C67.25 21.66 67.95 20.66 68.67 19.63 C69.03 19.11 69.03 19.11 70.88 16.5 C71.6 15.47 72.32 14.43 73.06 13.37 C75.02 10.57 76.99 7.77 79 5 C79.58 4.07 80.15 3.15 80.75 2.2 C83.39 -0.38 85.01 -0.57 88.64 -0.57 C89.36 -0.54 90.08 -0.51 90.83 -0.49 C91.2 -0.48 91.2 -0.48 93.1 -0.47 C95.48 -0.44 97.87 -0.38 100.25 -0.31 C101.87 -0.29 103.49 -0.26 105.11 -0.24 C109.07 -0.19 113.04 -0.1 117 0 C116.4 3.21 115.39 5.08 113.3 7.57 C112.76 8.24 112.21 8.9 111.65 9.58 C111.06 10.28 110.48 10.97 109.88 11.69 C108.67 13.14 107.47 14.59 106.27 16.04 C105.7 16.73 105.13 17.43 104.53 18.14 C102.81 20.23 101.14 22.35 99.5 24.5 C95.11 30.2 90.53 35.75 85.99 41.33 C85.48 41.96 84.97 42.6 84.44 43.25 C83.18 44.78 81.87 46.26 80.54 47.73 C79 50 79 50 79.25 51.93 C80.05 54.15 80.98 55.52 82.48 57.33 C83 57.95 83.52 58.58 84.05 59.23 C84.61 59.89 85.17 60.56 85.75 61.25 C86.94 62.69 88.14 64.14 89.33 65.58 C89.63 65.95 89.63 65.95 91.18 67.81 C93.98 71.18 96.74 74.59 99.5 78 C102.86 82.15 106.23 86.28 109.64 90.39 C110.23 91.11 110.83 91.83 111.44 92.57 C112.57 93.94 113.72 95.32 114.86 96.69 C117.58 99.99 119.71 102.85 121 107 C114.24 108.23 107.55 108.53 100.69 108.75 C99.41 108.84 98.13 108.93 96.81 109.02 C87.54 109.24 87.54 109.24 83.33 105.84 C80.99 103.01 78.99 100.1 77 97 C75.74 95.32 74.48 93.64 73.2 91.98 C72.03 90.39 70.85 88.79 69.69 87.19 C69.39 86.78 69.39 86.78 67.89 84.74 C64.82 80.56 61.83 76.35 59 72 C54.97 75.83 51.67 79.91 48.38 84.38 C48.11 84.72 48.11 84.72 46.75 86.47 C44.04 89.99 41.75 93.32 39.93 97.38 C37.69 101.98 35.72 105.66 31 108 C20.15 109.87 8.91 108.91 -2 108 C-1.26 103.59 -0.07 101.47 2.88 98.06 C3.69 97.1 4.5 96.14 5.34 95.16 C5.77 94.65 6.21 94.14 6.66 93.61 C8.99 90.82 11.21 87.94 13.44 85.06 C16.9 80.62 20.43 76.25 24.06 71.94 C29.24 65.78 34.14 59.41 39 53 C37.68 50.16 36.21 47.85 34.2 45.45 C33.64 44.78 33.08 44.11 32.51 43.42 C31.91 42.7 31.31 41.99 30.69 41.25 C29.41 39.72 28.14 38.19 26.87 36.65 C26.22 35.88 25.57 35.1 24.91 34.3 C22.02 30.82 19.16 27.32 16.31 23.81 C15.79 23.16 15.26 22.52 14.71 21.85 C9.4 15.29 4.19 8.66 -1 2 C-0.67 1.34 -0.34 0.68 0 0 Z " transform="translate(950,108)"/>
      <path d="M0 0 C0.79 0 1.58 0 2.39 0.01 C2.81 0.01 2.81 0.01 4.9 0 C7.65 -0 10.4 -0 13.15 0 C15.05 0 16.95 0 18.85 -0 C22.85 -0 26.84 0 30.83 0.01 C35.96 0.01 41.09 0.01 46.21 0 C50.14 -0 54.07 -0 58 0 C59.89 0 61.78 0 63.68 -0 C66.31 -0 68.95 0 71.59 0.01 C71.99 0.01 71.99 0.01 73.98 0 C79.38 0.02 79.38 0.02 80.49 1.14 C80.59 2.54 80.62 3.95 80.63 5.35 C80.63 6.2 80.63 7.05 80.63 7.93 C80.63 8.82 80.62 9.72 80.62 10.64 C80.62 11.53 80.63 12.42 80.63 13.34 C80.63 14.19 80.63 15.04 80.63 15.92 C80.62 16.7 80.62 17.49 80.62 18.29 C80.49 20.14 80.49 20.14 79.49 21.14 C77.77 21.26 76.05 21.31 74.33 21.34 C73.78 21.35 73.78 21.35 70.99 21.4 C70.39 21.41 70.39 21.41 67.36 21.45 C66.75 21.46 66.75 21.46 63.67 21.51 C59.76 21.58 55.84 21.64 51.93 21.7 C49.28 21.74 46.64 21.78 43.99 21.83 C37.49 21.94 30.99 22.04 24.49 22.14 C24.49 28.74 24.49 35.34 24.49 42.14 C25.25 42.15 25.25 42.15 29.07 42.21 C34.64 42.31 40.22 42.41 45.8 42.51 C48.22 42.55 50.64 42.59 53.05 42.63 C56.52 42.69 59.99 42.75 63.46 42.82 C64 42.83 64 42.83 66.76 42.87 C67.26 42.88 67.26 42.88 69.79 42.93 C70.68 42.95 71.56 42.96 72.47 42.98 C74.49 43.14 74.49 43.14 75.49 44.14 C75.59 45.47 75.62 46.8 75.63 48.14 C75.63 48.94 75.63 49.74 75.63 50.57 C75.63 51.42 75.62 52.26 75.62 53.14 C75.62 53.98 75.63 54.83 75.63 55.7 C75.63 56.5 75.63 57.31 75.63 58.14 C75.62 58.88 75.62 59.62 75.62 60.39 C75.49 62.14 75.49 62.14 74.49 63.14 C72.9 63.23 71.3 63.25 69.7 63.25 C68.68 63.25 67.66 63.25 66.6 63.25 C65.49 63.24 64.38 63.24 63.24 63.23 C62.11 63.23 60.98 63.23 59.81 63.23 C56.19 63.22 52.56 63.21 48.93 63.2 C46.48 63.19 44.03 63.19 41.57 63.18 C35.55 63.17 29.52 63.15 23.49 63.14 C23.66 66.93 23.66 66.93 24.49 86.14 C25.34 86.15 25.34 86.15 29.62 86.21 C35.19 86.3 40.77 86.38 46.35 86.47 C49.73 86.53 53.11 86.58 56.49 86.63 C60.38 86.69 64.26 86.75 68.14 86.82 C69.36 86.84 70.58 86.85 71.84 86.87 C72.96 86.89 74.08 86.91 75.24 86.93 C76.23 86.95 77.22 86.96 78.25 86.98 C80.49 87.14 80.49 87.14 81.49 88.14 C81.59 89.54 81.62 90.95 81.63 92.35 C81.63 93.2 81.63 94.05 81.63 94.93 C81.63 95.82 81.62 96.72 81.62 97.64 C81.62 98.53 81.63 99.42 81.63 100.34 C81.63 101.19 81.63 102.04 81.63 102.92 C81.62 103.7 81.62 104.49 81.62 105.29 C81.49 107.14 81.49 107.14 80.49 108.14 C77.78 108.23 75.1 108.26 72.39 108.25 C71.54 108.25 70.7 108.25 69.82 108.25 C67 108.25 64.18 108.24 61.36 108.23 C59.41 108.23 57.47 108.23 55.52 108.23 C50.38 108.23 45.23 108.22 40.09 108.2 C34.85 108.19 29.61 108.19 24.37 108.18 C14.08 108.17 3.78 108.16 -6.51 108.14 C-7.17 79.07 -7.79 50.02 -7.13 20.95 C-7.11 19.93 -7.09 18.92 -7.07 17.88 C-7.01 15.05 -6.93 12.23 -6.86 9.41 C-6.84 8.57 -6.82 7.74 -6.8 6.88 C-6.6 0.39 -6.52 0.03 0 0 Z " transform="translate(857.51,107.86)"/>
      <path d="M0 0 C0.88 0 1.77 0 2.68 0.01 C3.6 0 4.53 0 5.48 0 C8.55 -0 11.63 -0 14.7 0 C16.83 0 18.95 0 21.08 -0 C25.54 -0 30 0 34.47 0.01 C40.2 0.01 45.93 0.01 51.67 0 C56.06 -0 60.45 -0 64.84 0 C66.96 0 69.07 0 71.19 -0 C74.14 -0 77.09 0 80.04 0.01 C80.92 0 81.81 0 82.72 0 C88.74 0.02 88.74 0.02 89.86 1.14 C91.28 8.44 92.37 17.84 88.49 24.47 C85.01 28.73 80.87 32.22 76.61 35.68 C74.57 37.38 72.86 39.21 71.17 41.26 C68.17 44.82 65.03 48.23 61.86 51.64 C58.55 55.2 55.28 58.76 52.11 62.45 C49.18 65.84 46.03 68.98 42.84 72.12 C38.18 76.85 33.99 81.95 29.86 87.14 C30.62 87.13 31.38 87.13 32.17 87.13 C39.33 87.11 46.5 87.09 53.67 87.08 C57.35 87.08 61.04 87.07 64.72 87.06 C68.27 87.05 71.83 87.04 75.38 87.04 C76.74 87.04 78.1 87.04 79.46 87.03 C81.35 87.02 83.25 87.02 85.14 87.02 C86.23 87.02 87.31 87.02 88.42 87.02 C90.86 87.14 90.86 87.14 91.86 88.14 C91.96 89.54 91.99 90.95 91.99 92.35 C91.99 93.2 91.99 94.05 91.99 94.93 C91.99 95.82 91.99 96.72 91.98 97.64 C91.99 98.53 91.99 99.42 91.99 100.34 C91.99 101.19 91.99 102.04 91.99 102.92 C91.99 103.7 91.99 104.49 91.99 105.29 C91.86 107.14 91.86 107.14 90.86 108.14 C87.81 108.23 84.79 108.26 81.75 108.25 C80.79 108.25 79.84 108.25 78.85 108.25 C75.68 108.25 72.5 108.24 69.32 108.23 C67.13 108.23 64.93 108.23 62.74 108.23 C56.94 108.23 51.15 108.22 45.36 108.2 C39.46 108.19 33.55 108.19 27.64 108.18 C16.05 108.17 4.45 108.16 -7.14 108.14 C-7.35 104.62 -7.47 101.1 -7.58 97.57 C-7.64 96.58 -7.7 95.59 -7.76 94.57 C-7.93 87.27 -7.93 87.27 -5.62 83.93 C-3.87 82.19 -2.08 80.66 -0.14 79.14 C1.02 77.84 2.17 76.53 3.3 75.2 C6.26 71.75 9.4 68.54 12.67 65.39 C15.22 62.76 17.6 60.01 19.99 57.25 C22.93 53.91 25.99 50.68 29.05 47.45 C30.36 46.05 31.67 44.66 32.98 43.26 C34.87 41.24 36.77 39.23 38.67 37.22 C40.32 35.46 41.96 33.71 43.61 31.95 C44.1 31.43 44.59 30.92 45.09 30.38 C47.8 27.48 49.87 24.56 51.86 21.14 C51.5 21.14 51.5 21.14 49.66 21.14 C42.85 21.16 36.04 21.18 29.22 21.19 C25.72 21.19 22.22 21.2 18.71 21.21 C14.69 21.22 10.67 21.23 6.64 21.23 C5.38 21.24 4.12 21.24 2.81 21.25 C1.65 21.25 0.49 21.25 -0.7 21.25 C-1.22 21.25 -1.22 21.25 -3.82 21.26 C-6.14 21.14 -6.14 21.14 -7.14 20.14 C-7.24 18.73 -7.27 17.32 -7.27 15.92 C-7.28 15.07 -7.28 14.22 -7.28 13.34 C-7.27 12.45 -7.27 11.56 -7.27 10.64 C-7.27 9.74 -7.27 8.85 -7.28 7.93 C-7.28 7.08 -7.28 6.23 -7.27 5.35 C-7.27 4.57 -7.27 3.79 -7.27 2.98 C-6.97 -1.26 -3.45 0.01 0 0 Z " transform="translate(617.14,107.86)"/>
      <path d="M0 0 C1.19 0.03 2.37 0.07 3.59 0.1 C25.51 1.71 47.06 13.47 67 22 C67 22.99 67 23.98 67 25 C65.56 26.19 65.56 26.19 63.51 27.35 C62.75 27.78 61.99 28.22 61.21 28.67 C60.38 29.13 59.55 29.59 58.69 30.06 C57.83 30.54 56.97 31.03 56.09 31.52 C53.4 33.03 50.7 34.52 48 36 C47.18 36.45 46.37 36.91 45.53 37.38 C22.67 50.05 2.73 56.22 -23.44 56.31 C-24.14 56.32 -24.83 56.32 -25.55 56.32 C-27.56 56.33 -29.56 56.32 -31.56 56.3 C-32.73 56.29 -33.9 56.28 -35.1 56.27 C-38 56 -38 56 -41 54 C-41.04 51.8 -41.04 51.8 -40 49 C-37.36 47.02 -34.41 45.67 -31.44 44.25 C-29.7 43.38 -27.96 42.51 -26.23 41.64 C-25.35 41.2 -24.48 40.77 -23.58 40.32 C-19.07 38.01 -14.7 35.45 -10.34 32.87 C-6.27 30.51 -2.53 29.12 2 28 C2 27.34 2 26.68 2 26 C1.72 25.93 1.72 25.93 0.32 25.57 C-6.98 23.57 -13.72 20.56 -20.55 17.33 C-22.46 16.43 -24.36 15.54 -26.27 14.65 C-35.52 10.32 -35.52 10.32 -39 8 C-38.12 3.12 -38.12 3.12 -37 2 C-24.9 -0.01 -12.23 -0.53 0 0 Z " transform="translate(41,170)"/>
      <path d="M0 0 C1.51 0.06 3.01 0.11 4.52 0.16 C28.11 1.11 28.11 1.11 32 5 C31.89 7.47 31.89 7.47 31 10 C29.18 11.41 29.18 11.41 26.8 12.5 C26.36 12.71 26.36 12.71 24.15 13.74 C23.22 14.16 22.28 14.57 21.31 15 C20.36 15.43 19.42 15.87 18.44 16.32 C-0.79 25 -0.79 25 -7 25 C-4.24 28.26 -0.63 30 3.06 32 C9.42 35.51 15.68 39.15 21.88 42.94 C22.65 43.41 23.43 43.88 24.23 44.37 C24.96 44.81 25.68 45.26 26.43 45.71 C27.07 46.11 27.71 46.5 28.37 46.91 C30 48 30 48 32 50 C31.75 52.06 31.75 52.06 31 54 C26.64 56.18 20.79 55.23 15.95 55.24 C13.8 55.25 11.65 55.28 9.51 55.31 C-3.27 55.41 -15.07 53.63 -26.62 47.88 C-27.48 47.46 -28.33 47.04 -29.21 46.61 C-37.37 42.53 -45.2 37.9 -53 33.19 C-53.61 32.82 -54.22 32.45 -54.86 32.07 C-56.62 31.01 -58.37 29.94 -60.12 28.86 C-61.14 28.23 -62.15 27.61 -63.2 26.97 C-66.14 24.9 -68.53 22.61 -71 20 C-62.23 16.21 -53.34 12.85 -44.34 9.66 C-42.13 8.88 -39.93 8.08 -37.73 7.29 C-25.34 2.86 -13.3 -0.69 0 0 Z " transform="translate(394,171)"/>
      <path d="M0 0 C3.78 0.56 6.03 2.53 8.88 4.91 C10.03 5.83 11.18 6.75 12.34 7.67 C12.91 8.13 13.48 8.6 14.07 9.07 C16.53 11.02 19.08 12.84 21.63 14.66 C22.52 15.31 23.41 15.97 24.33 16.64 C25.77 17.69 27.22 18.71 28.71 19.67 C43.36 30.12 49.57 59.01 53.76 75.41 C49.06 76.84 45.12 75.85 40.48 74.71 C40.08 74.62 40.08 74.62 38.06 74.14 C36.36 73.73 34.66 73.32 32.97 72.91 C30.43 72.29 27.89 71.69 25.34 71.09 C2.57 65.67 -13.78 57.94 -31.3 42.16 C-31.88 41.65 -32.45 41.14 -33.04 40.62 C-35.92 37.97 -37.53 36.25 -38.24 32.41 C-35.93 30.19 -34.58 29.44 -31.36 29.14 C-25.77 29.26 -20.39 30.86 -14.99 32.22 C-13.92 32.48 -12.85 32.74 -11.75 33.01 C-4.89 34.7 1.94 36.51 8.76 38.41 C7.74 35.86 6.72 33.32 5.7 30.78 C5.54 30.4 5.54 30.4 4.76 28.46 C2.18 22.21 -0.8 16.28 -4.05 10.36 C-5.37 7.08 -5.44 5.69 -4.24 2.41 C-2.24 0.41 -2.24 0.41 0 0 Z " transform="translate(87.24,41.59)"/>
      <path d="M0 0 C2.38 0.69 2.38 0.69 3.38 1.69 C3.39 9.97 -0.86 16.6 -4.69 23.69 C-5.36 24.95 -6.03 26.22 -6.7 27.48 C-8.33 30.56 -9.97 33.62 -11.62 36.69 C-10.97 36.54 -10.32 36.4 -9.64 36.24 C-6.64 35.58 -3.63 34.91 -0.62 34.25 C0.4 34.02 1.43 33.79 2.5 33.55 C10.34 31.83 17.81 30.53 25.88 30.62 C26.92 30.63 27.96 30.64 29.03 30.65 C29.42 30.66 29.42 30.66 31.38 30.69 C32.09 32.94 32.09 32.94 32.38 35.69 C27.02 43.61 17.29 49.16 9.44 54.31 C8.88 54.68 8.32 55.06 7.74 55.44 C-0.43 60.71 -8.82 63.51 -18.25 65.69 C-19.33 65.94 -20.41 66.19 -21.52 66.45 C-29.1 68.2 -36.71 69.75 -44.38 71.12 C-45.33 71.3 -46.29 71.48 -47.28 71.66 C-47.72 71.73 -47.72 71.73 -49.98 72.12 C-50.37 72.19 -50.37 72.19 -52.34 72.53 C-54.94 72.71 -57.1 72.3 -59.62 71.69 C-56.18 61.69 -52.13 51.97 -47.81 42.31 C-47.34 41.22 -46.87 40.13 -46.38 39 C-38.34 21.33 -23.21 12.46 -7.26 2.71 C-2.45 -0.29 -2.45 -0.29 0 0 Z " transform="translate(359.62,44.31)"/>
      <path d="M0 0 C4.95 0.57 7.36 4.83 10.33 8.54 C13.01 12.01 15.58 15.55 18.13 19.12 C18.65 19.85 19.17 20.58 19.71 21.33 C22.18 24.88 24.33 28.16 25.69 32.31 C29.53 28.57 33.04 24.65 36.5 20.56 C37.56 19.32 38.62 18.08 39.68 16.84 C40.19 16.24 40.7 15.63 41.23 15.02 C43.21 12.71 45.19 10.41 47.19 8.12 C47.78 7.45 48.37 6.77 48.97 6.08 C51.88 3.09 53.64 1.39 57.88 1.06 C60.69 1.31 60.69 1.31 61.69 2.31 C61.57 27.67 54.23 45.88 39.69 66.31 C39.18 67.04 38.67 67.77 38.14 68.52 C36.55 70.77 34.94 73.01 33.32 75.25 C32.82 75.95 32.32 76.66 31.8 77.38 C30.36 79.34 30.36 79.34 27.69 82.31 C26.37 82.31 25.05 82.31 23.69 82.31 C5.55 63.63 -3.55 36.34 -3.43 10.87 C-3.44 9.96 -3.44 9.05 -3.45 8.12 C-3.44 7.25 -3.44 6.39 -3.44 5.5 C-3.44 5.11 -3.44 5.11 -3.44 3.13 C-3.24 0.36 -2.75 0.37 0 0 Z " transform="translate(195.31,-0.31)"/>
      <path d="M0 0 C2.83 2.5 4.34 5.23 6.07 8.57 C6.66 9.68 7.24 10.8 7.84 11.95 C8.45 13.15 9.07 14.36 9.69 15.56 C9.84 15.87 9.84 15.87 10.63 17.4 C14.49 24.9 18.28 32.43 21.75 40.12 C22.06 40.8 22.37 41.48 22.69 42.18 C27.55 53.27 28.08 64.99 28.19 76.94 C28.2 77.78 28.21 78.62 28.23 79.49 C28.23 79.89 28.23 79.89 28.23 81.9 C28.23 82.62 28.24 83.34 28.24 84.07 C28 86 28 86 26 89 C23.61 89.47 23.61 89.47 21 89 C19.11 87.16 19.11 87.16 17.31 84.5 C16.63 83.51 15.96 82.51 15.26 81.49 C10.01 73.43 4.93 65.26 0 57 C-3.97 58.32 -4.96 60.77 -7 64.19 C-10.33 69.55 -13.86 74.66 -17.75 79.62 C-18.2 80.2 -18.64 80.78 -19.11 81.38 C-21.77 84.74 -24.47 87.56 -28 90 C-30.75 90.31 -30.75 90.31 -33 90 C-33.33 89.67 -33.66 89.34 -34 89 C-33.95 80.33 -32.96 71.69 -31.69 63.12 C-31.58 62.37 -31.48 61.61 -31.37 60.82 C-29.86 51.28 -25.69 42.98 -21 34.62 C-20.77 34.2 -20.77 34.2 -19.58 32.06 C-6 7.81 -6 7.81 0 0 Z " transform="translate(210,301)"/>
      <path d="M0 0 C-0.59 4.95 -1.63 9.4 -3.22 14.12 C-3.33 14.45 -3.33 14.45 -3.89 16.11 C-4.61 18.23 -5.33 20.33 -6.06 22.44 C-6.19 22.8 -6.19 22.8 -6.81 24.61 C-17.02 54.03 -17.02 54.03 -27 62 C-27.39 62.34 -27.39 62.34 -29.39 64.09 C-34.5 68.46 -39.85 72.44 -45.44 76.19 C-46.03 76.6 -46.62 77.01 -47.23 77.43 C-48.93 78.54 -48.93 78.54 -52 80 C-54.41 79.24 -54.41 79.24 -56 78 C-55.33 73.77 -53.93 70.12 -52.28 66.17 C-52.01 65.53 -51.75 64.89 -51.47 64.24 C-50.63 62.22 -49.79 60.2 -48.94 58.19 C-48.36 56.81 -47.79 55.44 -47.22 54.06 C-45.82 50.71 -44.41 47.35 -43 44 C-43.33 43.67 -43.66 43.34 -44 43 C-44.94 43.27 -45.89 43.55 -46.86 43.83 C-50.37 44.84 -53.88 45.84 -57.4 46.85 C-58.92 47.28 -60.43 47.72 -61.95 48.15 C-64.14 48.79 -66.32 49.41 -68.51 50.03 C-69.19 50.23 -69.86 50.42 -70.55 50.63 C-74.1 51.63 -77.31 52.42 -81 52 C-81.66 51.34 -82.32 50.68 -83 50 C-82.97 46.25 -81.93 44.92 -79.45 42.06 C-78.4 41.03 -77.33 40.01 -76.25 39 C-75.99 38.75 -75.99 38.75 -74.66 37.46 C-73.61 36.45 -72.56 35.44 -71.5 34.44 C-70.12 33.11 -68.77 31.76 -67.42 30.4 C-54.87 17.95 -40.66 11.79 -24.06 6.69 C-22.69 6.26 -21.32 5.82 -19.95 5.39 C-2.86 0 -2.86 0 0 0 Z " transform="translate(134,270)"/>
      <path d="M0 0 C5.92 0.63 11.25 2.21 16.88 4.12 C17.79 4.44 18.71 4.75 19.66 5.07 C43.33 13.2 64.19 24.02 78 46 C77.81 48.94 77.81 48.94 77 51 C71.36 51.2 66.9 50.67 61.44 49.03 C60.76 48.83 60.08 48.63 59.39 48.43 C57.25 47.79 55.13 47.15 53 46.5 C51.54 46.07 50.09 45.63 48.63 45.2 C45.08 44.14 41.54 43.08 38 42 C38.14 42.45 38.14 42.45 38.86 44.75 C39.9 48.13 40.93 51.52 41.96 54.92 C42.4 56.38 42.85 57.84 43.31 59.3 C43.96 61.41 44.6 63.52 45.23 65.63 C45.43 66.28 45.64 66.93 45.85 67.59 C47.15 72.05 46.85 74.76 45 79 C39.41 78.75 36.46 75.13 32.69 71.44 C32.36 71.12 32.36 71.12 30.67 69.5 C29.36 68.23 28.05 66.97 26.75 65.69 C25.33 64.32 23.88 62.98 22.42 61.64 C14.46 54.27 11.34 44.88 8.5 34.62 C8.21 33.59 7.91 32.56 7.61 31.5 C0 4.45 0 4.45 0 0 Z " transform="translate(290,270)"/>
  </g>
  <g class="logo-yellow" fill="#EEBC3A">
      <path d="M0 0 C0.57 0 0.57 0 3.46 0 C7.09 0.01 10.72 0.02 14.34 0.04 C16.81 0.04 19.28 0.04 21.75 0.05 C27.78 0.06 33.81 0.08 39.84 0.1 C40.17 0.76 40.17 0.76 41.84 4.1 C39.96 6.46 38.08 8.82 36.18 11.18 C34.67 13.07 33.16 14.96 31.66 16.86 C26.44 23.38 20.83 29.29 14.84 35.1 C12.46 37.48 10.08 39.86 7.73 42.27 C-2.78 52.49 -16.37 57.73 -30.16 62.1 C-31.19 62.43 -32.23 62.76 -33.3 63.1 C-38.08 64.53 -41.23 65.38 -46.16 64.1 C-46.49 63.11 -46.82 62.12 -47.16 61.1 C-45.64 58.79 -45.64 58.79 -43.34 56.1 C-42.52 55.12 -41.69 54.15 -40.84 53.14 C-37.43 49.24 -33.9 45.43 -30.39 41.61 C-26.97 37.76 -23.81 34.05 -22.16 29.1 C-23.36 29.11 -24.56 29.12 -25.8 29.13 C-30.24 29.17 -34.69 29.19 -39.14 29.21 C-41.06 29.22 -42.99 29.23 -44.92 29.25 C-47.68 29.27 -50.45 29.28 -53.21 29.29 C-54.08 29.3 -54.94 29.31 -55.83 29.32 C-57.94 29.32 -60.05 29.22 -62.16 29.1 C-62.82 28.44 -63.48 27.78 -64.16 27.1 C-64.03 25.15 -64.03 25.15 -63.16 23.1 C-61.44 21.61 -61.44 21.61 -59.22 20.22 C-58.4 19.71 -57.58 19.19 -56.73 18.66 C-55.88 18.15 -55.03 17.63 -54.16 17.1 C-53.4 16.61 -52.64 16.13 -51.86 15.62 C-35.3 5.22 -19.57 -0.09 0 0 Z " transform="translate(75.16,231.9)"/>
      <path d="M0 0 C1.65 1.54 3.29 3.08 4.94 4.62 C6.5 5.98 8.06 7.34 9.62 8.69 C13.78 12.38 17.41 16.33 20.94 20.62 C21.61 21.42 22.27 22.21 22.96 23.02 C23.61 23.82 24.27 24.62 24.94 25.44 C25.54 26.17 26.13 26.89 26.75 27.64 C27.14 28.3 27.53 28.95 27.94 29.62 C27.61 30.61 27.28 31.61 26.94 32.62 C4.65 42.02 -28.13 41.77 -51.06 35.62 C-51.95 35.39 -52.83 35.15 -53.75 34.91 C-62.61 32.48 -70.92 29.94 -79.06 25.62 C-79.06 24.3 -79.06 22.98 -79.06 21.62 C-74.84 19.7 -70.61 18.9 -66.06 18.19 C-64.5 17.93 -62.94 17.67 -61.38 17.41 C-58.93 17.02 -56.49 16.62 -54.04 16.23 C-51.67 15.85 -49.3 15.45 -46.93 15.06 C-46.57 15.01 -46.57 15.01 -44.72 14.72 C-41.19 14.13 -38.15 13.49 -35.06 11.62 C-35.8 11.09 -36.54 10.56 -37.3 10.01 C-43.76 5.26 -49.76 0.33 -55.64 -5.13 C-58.37 -7.66 -61.18 -10.03 -64.06 -12.38 C-63.56 -14.31 -63.56 -14.31 -62.06 -16.38 C-40.99 -20.47 -15.93 -14.17 0 0 Z " transform="translate(90.06,121.38)"/>
      <path d="M0 0 C3.09 1.82 4.15 4.71 5.6 7.86 C5.93 8.55 6.27 9.25 6.61 9.97 C7.34 11.52 8.07 13.07 8.79 14.62 C10.05 17.33 11.37 20.02 12.68 22.7 C13.6 24.61 14.51 26.51 15.41 28.42 C15.85 29.3 16.29 30.19 16.74 31.1 C21.98 42.34 21.12 53.04 19.66 65.11 C19.53 66.28 19.4 67.45 19.27 68.66 C16.66 91.49 16.66 91.49 14.98 93.17 C8.96 92.89 5.64 91.02 1.04 87.48 C0.73 87.25 0.73 87.25 -0.82 86.1 C-2.56 84.8 -4.29 83.48 -6.02 82.17 C-7.44 81.13 -8.86 80.08 -10.27 79.04 C-14.93 75.51 -19.51 71.88 -24.02 68.17 C-24.46 67.82 -24.46 67.82 -26.67 66.04 C-32.94 60.78 -36.61 55.57 -40.02 48.17 C-40.46 47.27 -40.9 46.37 -41.36 45.45 C-45.31 37.13 -49.4 28.52 -49.02 19.17 C-46.14 18.32 -44.52 17.99 -41.66 19.03 C-32.82 24.14 -23.84 29.55 -15.83 35.91 C-13.88 37.27 -12.32 37.65 -10.02 38.17 C-9.99 36.97 -9.95 35.77 -9.91 34.54 C-8.91 8.02 -8.91 8.02 -4.17 1.7 C-2.02 0.17 -2.02 0.17 0 0 Z " transform="translate(163.02,2.83)"/>
      <path d="M0 0 C3.63 0.83 4.51 2.54 6.55 5.58 C7.28 8.46 7.28 8.46 7.6 11.58 C7.72 12.72 7.84 13.85 7.97 15.02 C8.08 16.2 8.19 17.37 8.3 18.58 C8.43 19.76 8.55 20.93 8.68 22.14 C9.18 26.98 9.62 31.72 9.55 36.58 C15.24 33.36 20.86 30.06 26.33 26.48 C27.16 25.94 27.99 25.4 28.85 24.85 C30.5 23.77 32.15 22.68 33.79 21.58 C38.45 18.55 41.94 16.74 47.55 16.58 C47.88 16.91 48.21 17.24 48.55 17.58 C48.16 23.9 46.49 29.05 43.99 34.83 C43.63 35.66 43.27 36.5 42.91 37.35 C34.58 56.19 21.63 66.91 4.55 77.58 C3.59 78.18 2.63 78.78 1.64 79.4 C-1.33 81.25 -4.33 83.08 -7.32 84.89 C-8.27 85.48 -9.21 86.06 -10.19 86.66 C-11.08 87.19 -11.96 87.71 -12.88 88.26 C-13.67 88.73 -14.45 89.2 -15.26 89.69 C-17.83 90.74 -18.91 90.59 -21.45 89.58 C-22.99 88.04 -22.59 86.59 -22.61 84.44 C-22.62 84 -22.62 84 -22.64 81.76 C-22.64 80.8 -22.65 79.84 -22.65 78.84 C-22.66 77.85 -22.66 76.86 -22.67 75.84 C-22.68 73.73 -22.69 71.62 -22.69 69.51 C-22.7 66.32 -22.73 63.13 -22.76 59.94 C-22.84 45.52 -21.83 33.81 -14.7 21.02 C-14.26 20.21 -13.82 19.4 -13.36 18.57 C-12.07 16.23 -10.77 13.9 -9.45 11.58 C-9.1 10.95 -8.75 10.31 -8.38 9.66 C-3.46 0.82 -3.46 0.82 0 0 Z " transform="translate(284.45,5.42)"/>
      <path d="M0 0 C0.71 -0.02 1.42 -0.04 2.15 -0.05 C6.58 -0.05 9.31 0.68 12.88 3.31 C9.19 12.11 -2.79 17.97 -10.41 23.19 C-11.12 23.68 -11.83 24.17 -12.56 24.68 C-13.2 25.11 -13.84 25.55 -14.5 26 C-16.12 27.31 -16.12 27.31 -18.12 30.31 C-17.53 30.34 -16.93 30.36 -16.31 30.39 C-8.89 30.85 -1.63 31.95 5.69 33.19 C6.18 33.27 6.18 33.27 8.69 33.68 C14.16 34.63 18.88 35.87 23.88 38.31 C23.93 40.59 23.93 40.59 22.88 43.31 C20.12 45 17.12 45.93 14.06 46.94 C13.2 47.24 12.33 47.54 11.44 47.85 C-2.45 52.58 -16.57 55.94 -31.31 55.31 C-32.35 55.27 -33.39 55.23 -34.45 55.19 C-68.15 53.3 -68.15 53.3 -80.12 47.31 C-80.44 45.06 -80.44 45.06 -80.12 42.31 C-77.94 40.31 -77.94 40.31 -75.12 38.31 C-72.53 35.79 -70.01 33.2 -67.5 30.59 C-60.23 23.07 -52.45 16.63 -44.12 10.31 C-43.31 9.59 -42.49 8.87 -41.64 8.13 C-30.96 0.41 -12.65 0.19 0 0 Z " transform="translate(401.12,105.69)"/>
      <path d="M0 0 C0.43 0 0.43 0 2.64 0.01 C3.08 0.01 3.08 0.01 5.36 0 C7.27 0 9.18 0 11.09 0.01 C13.97 0.01 16.85 0.01 19.73 0 C41.59 -0.01 58.66 2.11 77.84 13.14 C78.82 13.69 79.8 14.24 80.8 14.81 C85.54 17.57 89.76 20.48 93.84 24.14 C93.59 26.01 93.59 26.01 92.84 28.14 C89.08 30.94 84.61 30.39 80.14 30.33 C79.3 30.33 78.46 30.33 77.6 30.33 C74.93 30.31 72.26 30.29 69.59 30.26 C67.78 30.25 65.97 30.24 64.15 30.24 C59.72 30.21 55.28 30.18 50.84 30.14 C54.47 35 58.13 39.84 61.84 44.64 C62.06 44.92 62.06 44.92 63.13 46.33 C65.01 48.78 66.89 51.2 68.85 53.58 C72.87 58.52 72.87 58.52 72.72 62.14 C72.43 62.8 72.14 63.46 71.84 64.14 C63.27 66.99 51.6 60.8 43.84 57.14 C42.79 56.65 41.74 56.15 40.66 55.65 C24.78 47.68 15.5 36.72 5.48 22.42 C3.96 20.31 2.4 18.26 0.77 16.24 C0.54 15.95 0.54 15.95 -0.64 14.47 C-1.88 12.94 -3.12 11.42 -4.36 9.9 C-6.33 6.88 -6.93 4.72 -7.16 1.14 C-5.27 -0.75 -2.52 0.01 0 0 Z " transform="translate(320.16,231.86)"/>
      <path d="M0 0 C0.38 27.65 0.38 27.65 -0.81 41.19 C-0.88 42.04 -0.95 42.89 -1.02 43.77 C-1.92 52.75 -4.57 60.87 -8.69 68.88 C-9.03 69.55 -9.38 70.23 -9.73 70.92 C-18.56 87.91 -18.56 87.91 -23.11 89.94 C-23.73 89.96 -24.36 89.98 -25 90 C-30.46 84.54 -29.58 72.66 -30.12 65.38 C-30.21 64.28 -30.3 63.18 -30.39 62.04 C-30.6 59.36 -30.8 56.68 -31 54 C-35.23 56.35 -39.15 58.74 -43 61.69 C-47.52 65 -52.12 68.11 -56.88 71.06 C-57.51 71.47 -58.14 71.88 -58.79 72.29 C-61.72 74.08 -63.47 75.05 -66.95 74.75 C-67.62 74.5 -68.3 74.25 -69 74 C-68.43 68.01 -66.69 62.93 -64.44 57.38 C-64.08 56.5 -63.73 55.62 -63.36 54.71 C-52.9 29.58 -32.11 16.27 -10 2 C-9.17 1.41 -8.33 0.82 -7.47 0.21 C-4.45 -1.27 -3.19 -0.78 0 0 Z " transform="translate(174,293)"/>
      <path d="M0 0 C5.02 1.32 8.28 3.58 12.06 7 C17.57 11.83 23.25 16.32 29.12 20.71 C33.14 23.91 36.66 27.48 40 31.38 C40.45 31.9 40.91 32.42 41.38 32.96 C41.91 33.63 42.45 34.31 43 35 C43.8 35.98 44.6 36.97 45.42 37.98 C48.84 42.83 50.49 48.28 52.31 53.88 C52.67 54.91 53.03 55.95 53.4 57.02 C55.47 63.27 56.41 68.42 56 75 C53.86 75.75 53.86 75.75 51 76 C48.17 74.34 48.17 74.34 45.19 71.94 C44.13 71.1 43.06 70.26 42 69.41 C41.01 68.62 40.02 67.82 39 67 C37.57 65.93 36.13 64.87 34.69 63.81 C31.49 61.43 28.5 58.87 25.54 56.2 C24 55 24 55 21 54 C20.96 54.3 20.96 54.3 20.77 55.8 C16.6 88.4 16.6 88.4 14 91 C12.33 91.04 10.67 91.04 9 91 C4.69 83.49 0.72 75.82 -3 68 C-3.44 67.09 -3.88 66.19 -4.34 65.25 C-10.81 50.17 -6.21 31.61 -4 16 C-3.81 14.56 -3.62 13.12 -3.43 11.68 C-2.27 3.4 -2.27 3.4 0 0 Z " transform="translate(252,292)"/>
      <path d="M0 0 C0.39 0.05 0.39 0.05 2.39 0.27 C4.31 0.62 4.31 0.62 5.31 1.62 C5.41 4.28 5.45 6.91 5.45 9.56 C5.45 10.36 5.45 11.15 5.45 11.97 C5.45 13.66 5.45 15.34 5.44 17.03 C5.44 19.61 5.44 22.2 5.45 24.79 C5.45 26.42 5.45 28.05 5.45 29.69 C5.45 30.47 5.45 31.25 5.45 32.05 C5.43 37.51 5.43 37.51 4.31 38.62 C2.48 38.72 0.65 38.75 -1.19 38.75 C-2.19 38.75 -3.19 38.76 -4.22 38.76 C-6.69 38.62 -6.69 38.62 -7.69 37.62 C-7.76 34.76 -7.78 31.92 -7.75 29.06 C-7.75 28.26 -7.74 27.45 -7.74 26.62 C-7.72 24.62 -7.71 22.62 -7.69 20.62 C-11.03 23.78 -13.57 26.74 -15.81 30.75 C-19.42 37.16 -19.42 37.16 -21.69 38.62 C-25.04 38.81 -25.04 38.81 -28.69 37.62 C-30.98 35.25 -32.52 32.56 -34.12 29.69 C-34.57 28.95 -35.02 28.2 -35.47 27.44 C-38.69 22 -38.69 22 -38.69 19.62 C-39.35 19.62 -40.01 19.62 -40.69 19.62 C-40.66 20.83 -40.64 22.03 -40.62 23.27 C-40.6 24.85 -40.58 26.42 -40.56 28 C-40.55 28.4 -40.55 28.4 -40.51 30.41 C-40.49 32.48 -40.58 34.55 -40.69 36.62 C-42.69 38.62 -42.69 38.62 -44.82 38.86 C-45.62 38.84 -46.42 38.83 -47.25 38.81 C-48.06 38.81 -48.86 38.8 -49.69 38.79 C-51.69 38.62 -51.69 38.62 -52.69 37.62 C-52.79 34.97 -52.83 32.34 -52.82 29.69 C-52.82 28.89 -52.82 28.1 -52.82 27.28 C-52.82 25.59 -52.82 23.91 -52.82 22.22 C-52.81 19.64 -52.82 17.05 -52.82 14.46 C-52.82 12.83 -52.82 11.2 -52.82 9.56 C-52.82 8.78 -52.82 8 -52.83 7.2 C-52.8 1.74 -52.8 1.74 -51.69 0.62 C-49.11 0.35 -49.11 0.35 -45.88 0.25 C-44.82 0.2 -43.76 0.15 -42.67 0.1 C-39.69 0.62 -39.69 0.62 -37.59 2.7 C-36.96 3.67 -36.33 4.63 -35.69 5.62 C-35.32 6.18 -34.95 6.73 -34.57 7.3 C-33.38 9.1 -32.22 10.92 -31.06 12.75 C-30.28 13.98 -29.49 15.21 -28.71 16.45 C-28.04 17.49 -27.38 18.54 -26.69 19.62 C-26.03 20.61 -25.37 21.61 -24.69 22.62 C-24.03 22.62 -23.37 22.62 -22.69 22.62 C-21.5 21.04 -21.5 21.04 -20.19 18.83 C-19.72 18.03 -19.24 17.24 -18.75 16.42 C-18.25 15.58 -17.76 14.74 -17.25 13.88 C-16.27 12.23 -15.3 10.59 -14.32 8.95 C-13.88 8.22 -13.45 7.49 -13.01 6.73 C-9.35 0.9 -9.35 0.9 -6.79 -0.15 C-4.44 -0.4 -2.35 -0.29 0 0 Z " transform="translate(742.69,251.38)"/>
      <path d="M0 0 C1.99 1.99 1.16 5.95 1.17 8.68 C1.17 9.07 1.17 9.07 1.18 11.02 C1.18 12.65 1.19 14.29 1.19 15.92 C1.19 18.42 1.21 20.93 1.22 23.43 C1.23 25.02 1.23 26.6 1.23 28.18 C1.24 28.94 1.24 29.69 1.25 30.46 C1.23 35.77 1.23 35.77 -1 38 C-3.38 38.2 -3.38 38.2 -6.12 38.12 C-7.04 38.11 -7.95 38.09 -8.88 38.07 C-9.58 38.05 -10.28 38.02 -11 38 C-13 34 -13 34 -13 24 C-19.6 24 -26.2 24 -33 24 C-33.14 26.12 -33.29 28.25 -33.44 30.44 C-33.88 36.88 -33.88 36.88 -35 38 C-36.64 38.12 -38.29 38.18 -39.94 38.19 C-40.83 38.2 -41.73 38.22 -42.65 38.23 C-45 38 -45 38 -47 36 C-47.19 33.36 -47.26 30.82 -47.23 28.18 C-47.23 27.41 -47.23 26.64 -47.23 25.85 C-47.23 24.21 -47.22 22.58 -47.21 20.95 C-47.19 18.44 -47.19 15.94 -47.19 13.43 C-47.18 11.85 -47.17 10.27 -47.17 8.68 C-47.17 7.93 -47.17 7.18 -47.16 6.4 C-47.12 1.12 -47.12 1.12 -46 0 C-44.17 -0.1 -42.33 -0.13 -40.5 -0.12 C-39.5 -0.13 -38.5 -0.13 -37.47 -0.13 C-35 0 -35 0 -34 1 C-33.54 4.99 -33.3 8.99 -33 13 C-26.4 13 -19.8 13 -13 13 C-12.67 9.04 -12.34 5.08 -12 1 C-6.88 -1.05 -5.18 -1.1 0 0 Z " transform="translate(592,252)"/>
      <path d="M0 0 C1.31 4.39 1.31 4.39 0.06 6.88 C-2.62 8.34 -4.46 7.83 -7.39 7.33 C-12.89 6.64 -18.47 6.93 -24 7 C-24 7.99 -24 8.98 -24 10 C-23.33 10.11 -22.67 10.22 -21.98 10.33 C-0.98 13.94 -0.98 13.94 4 20 C4.69 23.96 4.95 26.25 3.04 29.78 C-0.43 34.29 -3.75 35.55 -9.12 36.62 C-18.7 37.55 -28.18 37.56 -37.12 33.62 C-37.74 33.09 -38.36 32.55 -39 32 C-39 28 -39 28 -37.81 26.25 C-35.35 24.55 -33.95 24.65 -31 25 C-30.25 25.33 -29.49 25.67 -28.72 26.01 C-25.6 27.15 -23.18 27.23 -19.88 27.19 C-18.84 27.18 -17.81 27.17 -16.74 27.17 C-14 27 -14 27 -11 26 C-11 25.34 -11 24.68 -11 24 C-13 23.37 -15 22.75 -17 22.12 C-18.19 21.76 -19.37 21.39 -20.6 21 C-23.22 20.23 -25.77 19.6 -28.44 19.06 C-32.99 17.7 -34.87 16.6 -38 13 C-38.86 10.12 -38.86 7.88 -38 5 C-28.7 -5.74 -12.15 -5.03 0 0 Z " transform="translate(1066,254)"/>
      <path d="M0 0 C0.59 -0 0.59 -0 3.56 -0.01 C4.78 -0 5.99 0.01 7.25 0.02 C8.46 0.01 9.68 0 10.94 -0.01 C12.11 -0.01 13.29 -0 14.5 0 C15.57 0 16.63 0 17.73 0.01 C20.75 0.27 22.95 0.99 25.68 2.27 C25.73 4.27 25.72 6.27 25.68 8.27 C24 9.95 21.86 9.49 19.55 9.58 C19.04 9.6 19.04 9.6 16.42 9.71 C15.88 9.73 15.88 9.73 13.12 9.83 C12.57 9.85 12.57 9.85 9.81 9.96 C7.1 10.07 4.39 10.17 1.68 10.27 C1.68 11.59 1.68 12.91 1.68 14.27 C2.25 14.29 2.81 14.31 3.4 14.33 C5.95 14.42 8.5 14.53 11.06 14.64 C11.95 14.67 12.84 14.7 13.75 14.73 C14.6 14.77 15.46 14.81 16.33 14.85 C17.12 14.88 17.9 14.91 18.71 14.95 C20.68 15.27 20.68 15.27 22.68 17.27 C22.87 19.83 22.87 19.83 22.68 22.27 C21.1 23.85 19.41 23.49 17.21 23.58 C16.31 23.62 15.41 23.67 14.49 23.71 C13.54 23.75 12.6 23.79 11.62 23.83 C10.67 23.87 9.72 23.91 8.74 23.96 C6.39 24.07 4.04 24.17 1.68 24.27 C1.68 26.25 1.68 28.23 1.68 30.27 C2.03 30.28 2.03 30.28 3.76 30.33 C6.86 30.42 9.96 30.53 13.06 30.64 C13.6 30.66 13.6 30.66 16.33 30.73 C16.85 30.75 16.85 30.75 19.46 30.85 C19.93 30.87 19.93 30.87 22.35 30.95 C24.68 31.27 24.68 31.27 26.68 33.27 C26.31 35.89 26.31 35.89 25.68 38.27 C22.07 39.47 18.75 39.41 14.99 39.4 C14.24 39.4 13.49 39.4 12.72 39.4 C11.14 39.4 9.56 39.4 7.99 39.4 C5.56 39.39 3.14 39.4 0.71 39.4 C-0.82 39.4 -2.35 39.4 -3.89 39.4 C-4.25 39.4 -4.25 39.4 -6.1 39.4 C-11.2 39.38 -11.2 39.38 -12.32 38.27 C-12.4 35.6 -12.43 32.96 -12.41 30.29 C-12.41 29.5 -12.41 28.7 -12.41 27.88 C-12.4 25.32 -12.39 22.76 -12.38 20.2 C-12.37 18.47 -12.37 16.74 -12.37 15.01 C-12.35 10.76 -12.34 6.51 -12.32 2.27 C-8.07 0.66 -4.54 0.01 0 0 Z " transform="translate(635.32,250.73)"/>
      <path d="M0 0 C2.98 2.65 5.02 5.39 7.02 8.82 C7.57 9.75 8.12 10.68 8.68 11.63 C9.24 12.6 9.8 13.57 10.38 14.56 C10.65 15.03 10.65 15.03 12.05 17.41 C15.83 23.87 19.45 30.41 23 37 C20.51 39.49 19.57 39.32 16.12 39.38 C12.56 39.31 11.38 39.27 8.44 37.12 C7 35 7 35 6 33 C2.13 31.71 -1.53 31.85 -5.56 31.88 C-5.95 31.87 -5.95 31.87 -7.93 31.86 C-13.75 31.87 -13.75 31.87 -16 33 C-16.5 33.83 -16.99 34.65 -17.5 35.5 C-19 38 -19 38 -21 39 C-22.71 39.07 -24.42 39.08 -26.12 39.06 C-27.04 39.05 -27.95 39.04 -28.88 39.04 C-29.58 39.02 -30.28 39.01 -31 39 C-32.33 34.63 -32.33 34.63 -30.88 31.89 C-30.3 31.16 -29.72 30.44 -29.12 29.69 C-25.33 24.63 -22.29 19.35 -19.29 13.8 C-10.54 -2.2 -10.54 -2.2 0 0 Z M-7 14 C-8.32 16.64 -9.64 19.28 -11 22 C-3.57 24.43 -3.57 24.43 0 23 C-0.65 19.51 -1.92 16.88 -4 14 C-4.99 14 -5.98 14 -7 14 Z " transform="translate(921,251)"/>
      <path d="M0 0 C0.67 -0.01 1.35 -0.02 2.04 -0.02 C7.34 -0 12.55 0.56 17 3.62 C18 5.25 18 5.25 17.81 7.31 C17 9.25 17 9.25 15 11.25 C13.14 11.05 11.27 10.83 9.42 10.55 C6.71 10.21 4.05 10.1 1.31 10.06 C0.42 10.05 -0.47 10.03 -1.39 10.02 C-5.32 10.37 -8.14 11.62 -11.31 13.94 C-13.71 17.22 -13.56 19.27 -13 23.25 C-10.98 26.89 -9.57 28.02 -5.69 29.56 C-0.5 30.53 3.53 30.68 8.62 29.19 C12.01 28.25 13.69 28.25 17 29.25 C17.16 30.24 17.16 30.24 18 35.25 C13.36 39.69 6.81 40.33 0.62 40.5 C-8.89 40.2 -16.66 38.64 -24 32.25 C-27.99 27.5 -28.47 23.17 -28.41 17.11 C-27.64 11.69 -24.54 8.2 -20.29 4.94 C-13.95 1.03 -7.33 -0.08 0 0 Z " transform="translate(499,250.75)"/>
      <path d="M0 0 C1.23 2.11 1.23 2.11 2 4 C0.56 6.06 0.56 6.06 -2 8 C-4.24 8.05 -6.28 7.72 -8.49 7.37 C-14.32 6.51 -20.74 5.97 -26 9 C-28.2 10.65 -28.9 11.71 -29.81 14.31 C-30.06 17.86 -29.62 19.82 -28 23 C-23.18 26.82 -19.45 27.51 -13.36 27.28 C-10.41 26.93 -7.8 25.98 -5 25 C-2.25 25.19 -2.25 25.19 0 26 C2 29 2 29 1.94 31 C0.54 33.98 -1.01 34.66 -4 36 C-6.75 36.5 -9.23 36.84 -12 37 C-12.7 37.04 -13.41 37.08 -14.13 37.12 C-24.35 37.42 -33.11 35.84 -41 29 C-44.81 24.36 -45 19.41 -45 13.56 C-43.37 7.77 -39.88 3.68 -34.68 0.64 C-24.83 -3.85 -9.67 -6.18 0 0 Z " transform="translate(866,254)"/>
      <path d="M0 0 C0.99 -0.01 1.98 -0.03 3 -0.04 C5.56 0.19 5.56 0.19 7.56 2.19 C7.88 4.89 7.88 4.89 7.98 8.29 C8.02 9.5 8.05 10.71 8.09 11.96 C8.12 13.23 8.16 14.5 8.19 15.81 C8.23 17.09 8.26 18.37 8.3 19.69 C8.4 22.85 8.48 26.02 8.56 29.19 C15.49 29.52 22.42 29.85 29.56 30.19 C30.22 31.51 30.88 32.83 31.56 34.19 C30.53 36.16 30.53 36.16 28.56 38.19 C25.94 38.57 23.74 38.7 21.12 38.65 C20.4 38.65 19.67 38.65 18.93 38.65 C17.4 38.64 15.87 38.62 14.35 38.6 C12 38.56 9.66 38.56 7.32 38.56 C5.84 38.55 4.35 38.54 2.87 38.52 C2.17 38.52 1.47 38.52 0.74 38.52 C-4.21 38.42 -4.21 38.42 -6.44 36.19 C-6.62 33.55 -6.69 31.01 -6.67 28.37 C-6.67 27.6 -6.67 26.83 -6.67 26.03 C-6.66 24.4 -6.66 22.77 -6.64 21.14 C-6.63 18.63 -6.62 16.13 -6.62 13.62 C-6.62 12.04 -6.61 10.45 -6.61 8.87 C-6.6 8.12 -6.6 7.36 -6.6 6.59 C-6.54 0.29 -6.21 0.04 0 0 Z " transform="translate(974.44,251.81)"/>
      <path d="M0 0 C2 2 1.3 5.94 1.39 8.68 C1.41 9.45 1.44 10.22 1.46 11.02 C1.52 12.65 1.57 14.29 1.61 15.92 C1.69 18.42 1.78 20.93 1.87 23.43 C1.92 25.02 1.97 26.6 2.01 28.18 C2.04 28.94 2.07 29.69 2.1 30.46 C2.14 32.31 2.08 34.16 2 36 C0 38 0 38 -2.57 38.23 C-3.56 38.22 -4.54 38.2 -5.56 38.19 C-6.55 38.18 -7.55 38.17 -8.57 38.17 C-11 38 -11 38 -12 37 C-12.09 34.33 -12.12 31.69 -12.1 29.03 C-12.1 28.23 -12.09 27.43 -12.09 26.61 C-12.09 24.05 -12.08 21.5 -12.06 18.94 C-12.06 17.21 -12.05 15.48 -12.05 13.75 C-12.04 9.5 -12.02 5.25 -12 1 C-7.47 -0.65 -4.73 -1.21 0 0 Z " transform="translate(792,252)"/>
  </g>
</svg>
