<svg xmlns="http://www.w3.org/2000/svg" viewBox="0 0 434 392" aria-hidden="true">
  
  <g class="logo-navy" fill="#f2b829">
      <path d="M0 0 C1.19 0.03 2.37 0.07 3.59 0.1 C25.51 1.71 47.06 13.47 67 22 C67 22.99 67 23.98 67 25 C65.56 26.19 65.56 26.19 63.51 27.35 C62.75 27.78 61.99 28.22 61.21 28.67 C60.38 29.13 59.55 29.59 58.69 30.06 C57.83 30.54 56.97 31.03 56.09 31.52 C53.4 33.03 50.7 34.52 48 36 C47.18 36.45 46.37 36.91 45.53 37.38 C22.67 50.05 2.73 56.22 -23.44 56.31 C-24.14 56.32 -24.83 56.32 -25.55 56.32 C-27.56 56.33 -29.56 56.32 -31.56 56.3 C-32.73 56.29 -33.9 56.28 -35.1 56.27 C-38 56 -38 56 -41 54 C-41.04 51.8 -41.04 51.8 -40 49 C-37.36 47.02 -34.41 45.67 -31.44 44.25 C-29.7 43.38 -27.96 42.51 -26.23 41.64 C-25.35 41.2 -24.48 40.77 -23.58 40.32 C-19.07 38.01 -14.7 35.45 -10.34 32.87 C-6.27 30.51 -2.53 29.12 2 28 C2 27.34 2 26.68 2 26 C1.72 25.93 1.72 25.93 0.32 25.57 C-6.98 23.57 -13.72 20.56 -20.55 17.33 C-22.46 16.43 -24.36 15.54 -26.27 14.65 C-35.52 10.32 -35.52 10.32 -39 8 C-38.12 3.12 -38.12 3.12 -37 2 C-24.9 -0.01 -12.23 -0.53 0 0 Z " transform="translate(41,170)"/>
      <path d="M0 0 C1.51 0.06 3.01 0.11 4.52 0.16 C28.11 1.11 28.11 1.11 32 5 C31.89 7.47 31.89 7.47 31 10 C29.18 11.41 29.18 11.41 26.8 12.5 C26.36 12.71 26.36 12.71 24.15 13.74 C23.22 14.16 22.28 14.57 21.31 15 C20.36 15.43 19.42 15.87 18.44 16.32 C-0.79 25 -0.79 25 -7 25 C-4.24 28.26 -0.63 30 3.06 32 C9.42 35.51 15.68 39.15 21.88 42.94 C22.65 43.41 23.43 43.88 24.23 44.37 C24.96 44.81 25.68 45.26 26.43 45.71 C27.07 46.11 27.71 46.5 28.37 46.91 C30 48 30 48 32 50 C31.75 52.06 31.75 52.06 31 54 C26.64 56.18 20.79 55.23 15.95 55.24 C13.8 55.25 11.65 55.28 9.51 55.31 C-3.27 55.41 -15.07 53.63 -26.62 47.88 C-27.48 47.46 -28.33 47.04 -29.21 46.61 C-37.37 42.53 -45.2 37.9 -53 33.19 C-53.61 32.82 -54.22 32.45 -54.86 32.07 C-56.62 31.01 -58.37 29.94 -60.12 28.86 C-61.14 28.23 -62.15 27.61 -63.2 26.97 C-66.14 24.9 -68.53 22.61 -71 20 C-62.23 16.21 -53.34 12.85 -44.34 9.66 C-42.13 8.88 -39.93 8.08 -37.73 7.29 C-25.34 2.86 -13.3 -0.69 0 0 Z " transform="translate(394,171)"/>
      <path d="M0 0 C3.78 0.56 6.03 2.53 8.88 4.91 C10.03 5.83 11.18 6.75 12.34 7.67 C12.91 8.13 13.48 8.6 14.07 9.07 C16.53 11.02 19.08 12.84 21.63 14.66 C22.52 15.31 23.41 15.97 24.33 16.64 C25.77 17.69 27.22 18.71 28.71 19.67 C43.36 30.12 49.57 59.01 53.76 75.41 C49.06 76.84 45.12 75.85 40.48 74.71 C40.08 74.62 40.08 74.62 38.06 74.14 C36.36 73.73 34.66 73.32 32.97 72.91 C30.43 72.29 27.89 71.69 25.34 71.09 C2.57 65.67 -13.78 57.94 -31.3 42.16 C-31.88 41.65 -32.45 41.14 -33.04 40.62 C-35.92 37.97 -37.53 36.25 -38.24 32.41 C-35.93 30.19 -34.58 29.44 -31.36 29.14 C-25.77 29.26 -20.39 30.86 -14.99 32.22 C-13.92 32.48 -12.85 32.74 -11.75 33.01 C-4.89 34.7 1.94 36.51 8.76 38.41 C7.74 35.86 6.72 33.32 5.7 30.78 C5.54 30.4 5.54 30.4 4.76 28.46 C2.18 22.21 -0.8 16.28 -4.05 10.36 C-5.37 7.08 -5.44 5.69 -4.24 2.41 C-2.24 0.41 -2.24 0.41 0 0 Z " transform="translate(87.24,41.59)"/>
      <path d="M0 0 C2.38 0.69 2.38 0.69 3.38 1.69 C3.39 9.97 -0.86 16.6 -4.69 23.69 C-5.36 24.95 -6.03 26.22 -6.7 27.48 C-8.33 30.56 -9.97 33.62 -11.62 36.69 C-10.97 36.54 -10.32 36.4 -9.64 36.24 C-6.64 35.58 -3.63 34.91 -0.62 34.25 C0.4 34.02 1.43 33.79 2.5 33.55 C10.34 31.83 17.81 30.53 25.88 30.62 C26.92 30.63 27.96 30.64 29.03 30.65 C29.42 30.66 29.42 30.66 31.38 30.69 C32.09 32.94 32.09 32.94 32.38 35.69 C27.02 43.61 17.29 49.16 9.44 54.31 C8.88 54.68 8.32 55.06 7.74 55.44 C-0.43 60.71 -8.82 63.51 -18.25 65.69 C-19.33 65.94 -20.41 66.19 -21.52 66.45 C-29.1 68.2 -36.71 69.75 -44.38 71.12 C-45.33 71.3 -46.29 71.48 -47.28 71.66 C-47.72 71.73 -47.72 71.73 -49.98 72.12 C-50.37 72.19 -50.37 72.19 -52.34 72.53 C-54.94 72.71 -57.1 72.3 -59.62 71.69 C-56.18 61.69 -52.13 51.97 -47.81 42.31 C-47.34 41.22 -46.87 40.13 -46.38 39 C-38.34 21.33 -23.21 12.46 -7.26 2.71 C-2.45 -0.29 -2.45 -0.29 0 0 Z " transform="translate(359.62,44.31)"/>
      <path d="M0 0 C4.95 0.57 7.36 4.83 10.33 8.54 C13.01 12.01 15.58 15.55 18.13 19.12 C18.65 19.85 19.17 20.58 19.71 21.33 C22.18 24.88 24.33 28.16 25.69 32.31 C29.53 28.57 33.04 24.65 36.5 20.56 C37.56 19.32 38.62 18.08 39.68 16.84 C40.19 16.24 40.7 15.63 41.23 15.02 C43.21 12.71 45.19 10.41 47.19 8.12 C47.78 7.45 48.37 6.77 48.97 6.08 C51.88 3.09 53.64 1.39 57.88 1.06 C60.69 1.31 60.69 1.31 61.69 2.31 C61.57 27.67 54.23 45.88 39.69 66.31 C39.18 67.04 38.67 67.77 38.14 68.52 C36.55 70.77 34.94 73.01 33.32 75.25 C32.82 75.95 32.32 76.66 31.8 77.38 C30.36 79.34 30.36 79.34 27.69 82.31 C26.37 82.31 25.05 82.31 23.69 82.31 C5.55 63.63 -3.55 36.34 -3.43 10.87 C-3.44 9.96 -3.44 9.05 -3.45 8.12 C-3.44 7.25 -3.44 6.39 -3.44 5.5 C-3.44 5.11 -3.44 5.11 -3.44 3.13 C-3.24 0.36 -2.75 0.37 0 0 Z " transform="translate(195.31,-0.31)"/>
      <path d="M0 0 C2.83 2.5 4.34 5.23 6.07 8.57 C6.66 9.68 7.24 10.8 7.84 11.95 C8.45 13.15 9.07 14.36 9.69 15.56 C9.84 15.87 9.84 15.87 10.63 17.4 C14.49 24.9 18.28 32.43 21.75 40.12 C22.06 40.8 22.37 41.48 22.69 42.18 C27.55 53.27 28.08 64.99 28.19 76.94 C28.2 77.78 28.21 78.62 28.23 79.49 C28.23 79.89 28.23 79.89 28.23 81.9 C28.23 82.62 28.24 83.34 28.24 84.07 C28 86 28 86 26 89 C23.61 89.47 23.61 89.47 21 89 C19.11 87.16 19.11 87.16 17.31 84.5 C16.63 83.51 15.96 82.51 15.26 81.49 C10.01 73.43 4.93 65.26 0 57 C-3.97 58.32 -4.96 60.77 -7 64.19 C-10.33 69.55 -13.86 74.66 -17.75 79.62 C-18.2 80.2 -18.64 80.78 -19.11 81.38 C-21.77 84.74 -24.47 87.56 -28 90 C-30.75 90.31 -30.75 90.31 -33 90 C-33.33 89.67 -33.66 89.34 -34 89 C-33.95 80.33 -32.96 71.69 -31.69 63.12 C-31.58 62.37 -31.48 61.61 -31.37 60.82 C-29.86 51.28 -25.69 42.98 -21 34.62 C-20.77 34.2 -20.77 34.2 -19.58 32.06 C-6 7.81 -6 7.81 0 0 Z " transform="translate(210,301)"/>
      <path d="M0 0 C-0.59 4.95 -1.63 9.4 -3.22 14.12 C-3.33 14.45 -3.33 14.45 -3.89 16.11 C-4.61 18.23 -5.33 20.33 -6.06 22.44 C-6.19 22.8 -6.19 22.8 -6.81 24.61 C-17.02 54.03 -17.02 54.03 -27 62 C-27.39 62.34 -27.39 62.34 -29.39 64.09 C-34.5 68.46 -39.85 72.44 -45.44 76.19 C-46.03 76.6 -46.62 77.01 -47.23 77.43 C-48.93 78.54 -48.93 78.54 -52 80 C-54.41 79.24 -54.41 79.24 -56 78 C-55.33 73.77 -53.93 70.12 -52.28 66.17 C-52.01 65.53 -51.75 64.89 -51.47 64.24 C-50.63 62.22 -49.79 60.2 -48.94 58.19 C-48.36 56.81 -47.79 55.44 -47.22 54.06 C-45.82 50.71 -44.41 47.35 -43 44 C-43.33 43.67 -43.66 43.34 -44 43 C-44.94 43.27 -45.89 43.55 -46.86 43.83 C-50.37 44.84 -53.88 45.84 -57.4 46.85 C-58.92 47.28 -60.43 47.72 -61.95 48.15 C-64.14 48.79 -66.32 49.41 -68.51 50.03 C-69.19 50.23 -69.86 50.42 -70.55 50.63 C-74.1 51.63 -77.31 52.42 -81 52 C-81.66 51.34 -82.32 50.68 -83 50 C-82.97 46.25 -81.93 44.92 -79.45 42.06 C-78.4 41.03 -77.33 40.01 -76.25 39 C-75.99 38.75 -75.99 38.75 -74.66 37.46 C-73.61 36.45 -72.56 35.44 -71.5 34.44 C-70.12 33.11 -68.77 31.76 -67.42 30.4 C-54.87 17.95 -40.66 11.79 -24.06 6.69 C-22.69 6.26 -21.32 5.82 -19.95 5.39 C-2.86 0 -2.86 0 0 0 Z " transform="translate(134,270)"/>
      <path d="M0 0 C5.92 0.63 11.25 2.21 16.88 4.12 C17.79 4.44 18.71 4.75 19.66 5.07 C43.33 13.2 64.19 24.02 78 46 C77.81 48.94 77.81 48.94 77 51 C71.36 51.2 66.9 50.67 61.44 49.03 C60.76 48.83 60.08 48.63 59.39 48.43 C57.25 47.79 55.13 47.15 53 46.5 C51.54 46.07 50.09 45.63 48.63 45.2 C45.08 44.14 41.54 43.08 38 42 C38.14 42.45 38.14 42.45 38.86 44.75 C39.9 48.13 40.93 51.52 41.96 54.92 C42.4 56.38 42.85 57.84 43.31 59.3 C43.96 61.41 44.6 63.52 45.23 65.63 C45.43 66.28 45.64 66.93 45.85 67.59 C47.15 72.05 46.85 74.76 45 79 C39.41 78.75 36.46 75.13 32.69 71.44 C32.36 71.12 32.36 71.12 30.67 69.5 C29.36 68.23 28.05 66.97 26.75 65.69 C25.33 64.32 23.88 62.98 22.42 61.64 C14.46 54.27 11.34 44.88 8.5 34.62 C8.21 33.59 7.91 32.56 7.61 31.5 C0 4.45 0 4.45 0 0 Z " transform="translate(290,270)"/>
  </g>
  <g class="logo-yellow" fill="#f2b829">
      <path d="M0 0 C0.57 0 0.57 0 3.46 0 C7.09 0.01 10.72 0.02 14.34 0.04 C16.81 0.04 19.28 0.04 21.75 0.05 C27.78 0.06 33.81 0.08 39.84 0.1 C40.17 0.76 40.17 0.76 41.84 4.1 C39.96 6.46 38.08 8.82 36.18 11.18 C34.67 13.07 33.16 14.96 31.66 16.86 C26.44 23.38 20.83 29.29 14.84 35.1 C12.46 37.48 10.08 39.86 7.73 42.27 C-2.78 52.49 -16.37 57.73 -30.16 62.1 C-31.19 62.43 -32.23 62.76 -33.3 63.1 C-38.08 64.53 -41.23 65.38 -46.16 64.1 C-46.49 63.11 -46.82 62.12 -47.16 61.1 C-45.64 58.79 -45.64 58.79 -43.34 56.1 C-42.52 55.12 -41.69 54.15 -40.84 53.14 C-37.43 49.24 -33.9 45.43 -30.39 41.61 C-26.97 37.76 -23.81 34.05 -22.16 29.1 C-23.36 29.11 -24.56 29.12 -25.8 29.13 C-30.24 29.17 -34.69 29.19 -39.14 29.21 C-41.06 29.22 -42.99 29.23 -44.92 29.25 C-47.68 29.27 -50.45 29.28 -53.21 29.29 C-54.08 29.3 -54.94 29.31 -55.83 29.32 C-57.94 29.32 -60.05 29.22 -62.16 29.1 C-62.82 28.44 -63.48 27.78 -64.16 27.1 C-64.03 25.15 -64.03 25.15 -63.16 23.1 C-61.44 21.61 -61.44 21.61 -59.22 20.22 C-58.4 19.71 -57.58 19.19 -56.73 18.66 C-55.88 18.15 -55.03 17.63 -54.16 17.1 C-53.4 16.61 -52.64 16.13 -51.86 15.62 C-35.3 5.22 -19.57 -0.09 0 0 Z " transform="translate(75.16,231.9)"/>
      <path d="M0 0 C1.65 1.54 3.29 3.08 4.94 4.62 C6.5 5.98 8.06 7.34 9.62 8.69 C13.78 12.38 17.41 16.33 20.94 20.62 C21.61 21.42 22.27 22.21 22.96 23.02 C23.61 23.82 24.27 24.62 24.94 25.44 C25.54 26.17 26.13 26.89 26.75 27.64 C27.14 28.3 27.53 28.95 27.94 29.62 C27.61 30.61 27.28 31.61 26.94 32.62 C4.65 42.02 -28.13 41.77 -51.06 35.62 C-51.95 35.39 -52.83 35.15 -53.75 34.91 C-62.61 32.48 -70.92 29.94 -79.06 25.62 C-79.06 24.3 -79.06 22.98 -79.06 21.62 C-74.84 19.7 -70.61 18.9 -66.06 18.19 C-64.5 17.93 -62.94 17.67 -61.38 17.41 C-58.93 17.02 -56.49 16.62 -54.04 16.23 C-51.67 15.85 -49.3 15.45 -46.93 15.06 C-46.57 15.01 -46.57 15.01 -44.72 14.72 C-41.19 14.13 -38.15 13.49 -35.06 11.62 C-35.8 11.09 -36.54 10.56 -37.3 10.01 C-43.76 5.26 -49.76 0.33 -55.64 -5.13 C-58.37 -7.66 -61.18 -10.03 -64.06 -12.38 C-63.56 -14.31 -63.56 -14.31 -62.06 -16.38 C-40.99 -20.47 -15.93 -14.17 0 0 Z " transform="translate(90.06,121.38)"/>
      <path d="M0 0 C3.09 1.82 4.15 4.71 5.6 7.86 C5.93 8.55 6.27 9.25 6.61 9.97 C7.34 11.52 8.07 13.07 8.79 14.62 C10.05 17.33 11.37 20.02 12.68 22.7 C13.6 24.61 14.51 26.51 15.41 28.42 C15.85 29.3 16.29 30.19 16.74 31.1 C21.98 42.34 21.12 53.04 19.66 65.11 C19.53 66.28 19.4 67.45 19.27 68.66 C16.66 91.49 16.66 91.49 14.98 93.17 C8.96 92.89 5.64 91.02 1.04 87.48 C0.73 87.25 0.73 87.25 -0.82 86.1 C-2.56 84.8 -4.29 83.48 -6.02 82.17 C-7.44 81.13 -8.86 80.08 -10.27 79.04 C-14.93 75.51 -19.51 71.88 -24.02 68.17 C-24.46 67.82 -24.46 67.82 -26.67 66.04 C-32.94 60.78 -36.61 55.57 -40.02 48.17 C-40.46 47.27 -40.9 46.37 -41.36 45.45 C-45.31 37.13 -49.4 28.52 -49.02 19.17 C-46.14 18.32 -44.52 17.99 -41.66 19.03 C-32.82 24.14 -23.84 29.55 -15.83 35.91 C-13.88 37.27 -12.32 37.65 -10.02 38.17 C-9.99 36.97 -9.95 35.77 -9.91 34.54 C-8.91 8.02 -8.91 8.02 -4.17 1.7 C-2.02 0.17 -2.02 0.17 0 0 Z " transform="translate(163.02,2.83)"/>
      <path d="M0 0 C3.63 0.83 4.51 2.54 6.55 5.58 C7.28 8.46 7.28 8.46 7.6 11.58 C7.72 12.72 7.84 13.85 7.97 15.02 C8.08 16.2 8.19 17.37 8.3 18.58 C8.43 19.76 8.55 20.93 8.68 22.14 C9.18 26.98 9.62 31.72 9.55 36.58 C15.24 33.36 20.86 30.06 26.33 26.48 C27.16 25.94 27.99 25.4 28.85 24.85 C30.5 23.77 32.15 22.68 33.79 21.58 C38.45 18.55 41.94 16.74 47.55 16.58 C47.88 16.91 48.21 17.24 48.55 17.58 C48.16 23.9 46.49 29.05 43.99 34.83 C43.63 35.66 43.27 36.5 42.91 37.35 C34.58 56.19 21.63 66.91 4.55 77.58 C3.59 78.18 2.63 78.78 1.64 79.4 C-1.33 81.25 -4.33 83.08 -7.32 84.89 C-8.27 85.48 -9.21 86.06 -10.19 86.66 C-11.08 87.19 -11.96 87.71 -12.88 88.26 C-13.67 88.73 -14.45 89.2 -15.26 89.69 C-17.83 90.74 -18.91 90.59 -21.45 89.58 C-22.99 88.04 -22.59 86.59 -22.61 84.44 C-22.62 84 -22.62 84 -22.64 81.76 C-22.64 80.8 -22.65 79.84 -22.65 78.84 C-22.66 77.85 -22.66 76.86 -22.67 75.84 C-22.68 73.73 -22.69 71.62 -22.69 69.51 C-22.7 66.32 -22.73 63.13 -22.76 59.94 C-22.84 45.52 -21.83 33.81 -14.7 21.02 C-14.26 20.21 -13.82 19.4 -13.36 18.57 C-12.07 16.23 -10.77 13.9 -9.45 11.58 C-9.1 10.95 -8.75 10.31 -8.38 9.66 C-3.46 0.82 -3.46 0.82 0 0 Z " transform="translate(284.45,5.42)"/>
      <path d="M0 0 C0.71 -0.02 1.42 -0.04 2.15 -0.05 C6.58 -0.05 9.31 0.68 12.88 3.31 C9.19 12.11 -2.79 17.97 -10.41 23.19 C-11.12 23.68 -11.83 24.17 -12.56 24.68 C-13.2 25.11 -13.84 25.55 -14.5 26 C-16.12 27.31 -16.12 27.31 -18.12 30.31 C-17.53 30.34 -16.93 30.36 -16.31 30.39 C-8.89 30.85 -1.63 31.95 5.69 33.19 C6.18 33.27 6.18 33.27 8.69 33.68 C14.16 34.63 18.88 35.87 23.88 38.31 C23.93 40.59 23.93 40.59 22.88 43.31 C20.12 45 17.12 45.93 14.06 46.94 C13.2 47.24 12.33 47.54 11.44 47.85 C-2.45 52.58 -16.57 55.94 -31.31 55.31 C-32.35 55.27 -33.39 55.23 -34.45 55.19 C-68.15 53.3 -68.15 53.3 -80.12 47.31 C-80.44 45.06 -80.44 45.06 -80.12 42.31 C-77.94 40.31 -77.94 40.31 -75.12 38.31 C-72.53 35.79 -70.01 33.2 -67.5 30.59 C-60.23 23.07 -52.45 16.63 -44.12 10.31 C-43.31 9.59 -42.49 8.87 -41.64 8.13 C-30.96 0.41 -12.65 0.19 0 0 Z " transform="translate(401.12,105.69)"/>
      <path d="M0 0 C0.43 0 0.43 0 2.64 0.01 C3.08 0.01 3.08 0.01 5.36 0 C7.27 0 9.18 0 11.09 0.01 C13.97 0.01 16.85 0.01 19.73 0 C41.59 -0.01 58.66 2.11 77.84 13.14 C78.82 13.69 79.8 14.24 80.8 14.81 C85.54 17.57 89.76 20.48 93.84 24.14 C93.59 26.01 93.59 26.01 92.84 28.14 C89.08 30.94 84.61 30.39 80.14 30.33 C79.3 30.33 78.46 30.33 77.6 30.33 C74.93 30.31 72.26 30.29 69.59 30.26 C67.78 30.25 65.97 30.24 64.15 30.24 C59.72 30.21 55.28 30.18 50.84 30.14 C54.47 35 58.13 39.84 61.84 44.64 C62.06 44.92 62.06 44.92 63.13 46.33 C65.01 48.78 66.89 51.2 68.85 53.58 C72.87 58.52 72.87 58.52 72.72 62.14 C72.43 62.8 72.14 63.46 71.84 64.14 C63.27 66.99 51.6 60.8 43.84 57.14 C42.79 56.65 41.74 56.15 40.66 55.65 C24.78 47.68 15.5 36.72 5.48 22.42 C3.96 20.31 2.4 18.26 0.77 16.24 C0.54 15.95 0.54 15.95 -0.64 14.47 C-1.88 12.94 -3.12 11.42 -4.36 9.9 C-6.33 6.88 -6.93 4.72 -7.16 1.14 C-5.27 -0.75 -2.52 0.01 0 0 Z " transform="translate(320.16,231.86)"/>
      <path d="M0 0 C0.38 27.65 0.38 27.65 -0.81 41.19 C-0.88 42.04 -0.95 42.89 -1.02 43.77 C-1.92 52.75 -4.57 60.87 -8.69 68.88 C-9.03 69.55 -9.38 70.23 -9.73 70.92 C-18.56 87.91 -18.56 87.91 -23.11 89.94 C-23.73 89.96 -24.36 89.98 -25 90 C-30.46 84.54 -29.58 72.66 -30.12 65.38 C-30.21 64.28 -30.3 63.18 -30.39 62.04 C-30.6 59.36 -30.8 56.68 -31 54 C-35.23 56.35 -39.15 58.74 -43 61.69 C-47.52 65 -52.12 68.11 -56.88 71.06 C-57.51 71.47 -58.14 71.88 -58.79 72.29 C-61.72 74.08 -63.47 75.05 -66.95 74.75 C-67.62 74.5 -68.3 74.25 -69 74 C-68.43 68.01 -66.69 62.93 -64.44 57.38 C-64.08 56.5 -63.73 55.62 -63.36 54.71 C-52.9 29.58 -32.11 16.27 -10 2 C-9.17 1.41 -8.33 0.82 -7.47 0.21 C-4.45 -1.27 -3.19 -0.78 0 0 Z " transform="translate(174,293)"/>
      <path d="M0 0 C5.02 1.32 8.28 3.58 12.06 7 C17.57 11.83 23.25 16.32 29.12 20.71 C33.14 23.91 36.66 27.48 40 31.38 C40.45 31.9 40.91 32.42 41.38 32.96 C41.91 33.63 42.45 34.31 43 35 C43.8 35.98 44.6 36.97 45.42 37.98 C48.84 42.83 50.49 48.28 52.31 53.88 C52.67 54.91 53.03 55.95 53.4 57.02 C55.47 63.27 56.41 68.42 56 75 C53.86 75.75 53.86 75.75 51 76 C48.17 74.34 48.17 74.34 45.19 71.94 C44.13 71.1 43.06 70.26 42 69.41 C41.01 68.62 40.02 67.82 39 67 C37.57 65.93 36.13 64.87 34.69 63.81 C31.49 61.43 28.5 58.87 25.54 56.2 C24 55 24 55 21 54 C20.96 54.3 20.96 54.3 20.77 55.8 C16.6 88.4 16.6 88.4 14 91 C12.33 91.04 10.67 91.04 9 91 C4.69 83.49 0.72 75.82 -3 68 C-3.44 67.09 -3.88 66.19 -4.34 65.25 C-10.81 50.17 -6.21 31.61 -4 16 C-3.81 14.56 -3.62 13.12 -3.43 11.68 C-2.27 3.4 -2.27 3.4 0 0 Z " transform="translate(252,292)"/>
  </g>
</svg>
